<?xml version="1.0" encoding="UTF-8" standalone="no"?>
<!-- Created with Inkscape (http://www.inkscape.org/) -->

<svg
   width="19.871727"
   height="20.076733"
   viewBox="0 0 5.2577276 5.3119688"
   version="1.1"
   id="svg1"
   xml:space="preserve"
   inkscape:export-filename="funny.png"
   inkscape:export-xdpi="96"
   inkscape:export-ydpi="96"
   xmlns:inkscape="http://www.inkscape.org/namespaces/inkscape"
   xmlns:sodipodi="http://sodipodi.sourceforge.net/DTD/sodipodi-0.dtd"
   xmlns="http://www.w3.org/2000/svg"
   xmlns:svg="http://www.w3.org/2000/svg"><sodipodi:namedview
     id="namedview1"
     pagecolor="#979797"
     bordercolor="#000000"
     borderopacity="0.25"
     inkscape:showpageshadow="2"
     inkscape:pageopacity="0.0"
     inkscape:pagecheckerboard="0"
     inkscape:deskcolor="#d2d2d2"
     inkscape:document-units="mm" /><defs
     id="defs1" /><g
     inkscape:label="Layer 1"
     inkscape:groupmode="layer"
     id="layer1"
     transform="translate(-0.01696925)"><path
       d="M 2.4476179,0.05224627 C 2.3093592,0.1284827 2.2307495,0.2762338 2.2307495,0.42929683 V 1.6008784 c 0,0.1607359 -0.086296,0.3100608 -0.2282449,0.3952489 L 0.27196394,3.0342214 C 0.11330968,3.1293445 0.01696925,3.2962779 0.01696925,3.4758024 V 3.7183817 L 1.8874086,3.1573801 c 0.1702356,-0.051054 0.3433409,0.071023 0.3433409,0.2422842 V 4.5151752 L 1.7834839,4.8371388 C 1.7166605,4.8852415 1.6773044,4.9607893 1.6773044,5.0410589 V 5.3119686 L 2.6458332,5.0463709 3.6143621,5.3119686 V 5.0410589 c 0,-0.080269 -0.039356,-0.1558174 -0.1061795,-0.2039201 L 3.0609172,4.5151752 V 3.3996643 c 0,-0.1712614 0.1730027,-0.293338 0.3433408,-0.2422842 L 5.2746974,3.7183817 V 3.4758024 c 0,-0.1795245 -0.096341,-0.3464577 -0.2549947,-0.441581 L 3.2891619,1.9961273 C 3.1472135,1.9109392 3.0609172,1.7616143 3.0609172,1.6008784 V 0.39840881 c 0,-0.27494297 -0.3242779,-0.50542286 -0.6132993,-0.34616254 z"
       id="path2"
       style="fill:#ffffff;fill-opacity:1;stroke-width:0.100409"
       inkscape:export-filename="funny.png"
       inkscape:export-xdpi="96"
       inkscape:export-ydpi="96" /></g></svg>
