<?xml version="1.0" encoding="UTF-8" standalone="no"?>
<!-- Created with Inkscape (http://www.inkscape.org/) -->

<svg
   width="480"
   height="480"
   viewBox="0 0 127 127"
   version="1.1"
   id="svg1"
   xmlns:inkscape="http://www.inkscape.org/namespaces/inkscape"
   xmlns:sodipodi="http://sodipodi.sourceforge.net/DTD/sodipodi-0.dtd"
   xmlns="http://www.w3.org/2000/svg"
   xmlns:svg="http://www.w3.org/2000/svg">
  <sodipodi:namedview
     id="namedview1"
     pagecolor="#4c4c4c"
     bordercolor="#000000"
     borderopacity="0.24705882"
     inkscape:showpageshadow="2"
     inkscape:pageopacity="0.0"
     inkscape:pagecheckerboard="0"
     inkscape:deskcolor="#d1d1d1"
     inkscape:document-units="mm" />
  <defs
     id="defs1" />
  <g
     inkscape:label="Layer 1"
     inkscape:groupmode="layer"
     id="layer1"
     transform="translate(-44.681335,-76.108849)">
    <g
       id="g9718"
       transform="matrix(3.0036743,0,0,2.4471181,-66.229653,13.898144)"
       style="fill:#ffffff;fill-opacity:1;stroke:#ffffff;stroke-opacity:1">
      <path
         style="fill:#ffffff;fill-opacity:1;stroke:#ffffff;stroke-width:0.167609;stroke-opacity:1"
         d="m 41.750943,74.466746 c -0.721533,0.05952 -1.03644,0.0038 -1.438874,-0.254424 -0.297608,-0.190977 -0.631131,-0.625099 -0.789722,-1.027929 -0.150995,-0.38353 -0.274347,-1.094984 -0.274116,-1.581008 2.32e-4,-0.486025 0.190289,-1.603981 0.422354,-2.484347 0.232064,-0.880366 0.724193,-2.325072 1.09362,-3.210451 0.369427,-0.885386 1.110108,-2.462876 1.64596,-3.505538 l 0.974274,-1.895745 -0.811091,-1.568166 C 42.127247,58.076647 41.555601,56.68664 41.303022,55.850231 l -0.459235,-1.520741 -0.0025,-3.294936 -0.0025,-3.29494 0.370018,-1.35177 c 0.20351,-0.743474 0.666513,-1.982124 1.028896,-2.752555 0.362381,-0.770433 0.941443,-1.834185 1.286804,-2.363894 0.345361,-0.52971 1.114231,-1.488348 1.708601,-2.130309 0.594369,-0.641959 1.566974,-1.543156 2.161343,-2.002664 0.59437,-0.459507 1.82883,-1.207108 2.743245,-1.661339 0.914414,-0.45423 2.298506,-0.99489 3.075758,-1.201468 1.190754,-0.316476 1.844969,-0.374769 4.156431,-0.370351 2.344218,0.0045 2.936711,0.06122 4.073301,0.39005 0.731532,0.211643 1.47969,0.419883 1.662573,0.462756 0.231366,0.05424 0.661241,-0.213308 1.413186,-0.879544 0.59437,-0.526623 1.841113,-1.539223 2.770542,-2.250223 0.929428,-0.711 2.105621,-1.547802 2.613765,-1.85956 0.508142,-0.311759 1.393646,-0.762264 1.967789,-1.001124 0.574141,-0.238859 1.45538,-0.463209 1.958309,-0.498554 0.696657,-0.04896 1.036359,0.01368 1.426493,0.263046 0.281642,0.180022 0.646635,0.615497 0.811093,0.967725 0.230574,0.493833 0.276815,0.875478 0.202027,1.667418 -0.05334,0.564853 -0.255976,1.515202 -0.450297,2.111888 -0.19432,0.596685 -0.527618,1.452103 -0.74066,1.900926 l -0.387349,0.816044 h 1.047875 c 0.762412,0 1.073095,0.0668 1.140457,0.245212 0.0623,0.164992 -0.689671,0.911253 -2.298552,2.281112 -1.315124,1.119745 -2.515774,2.0359 -2.668108,2.0359 -0.237195,0 -0.263532,-0.139531 -0.183388,-0.971585 0.05147,-0.534371 0.135583,-1.655917 0.186916,-2.492325 0.05133,-0.836408 0.135811,-1.881918 0.187728,-2.323355 0.06077,-0.516727 0.174878,-0.802613 0.320345,-0.802613 0.124274,0 0.467533,0.305523 0.762799,0.678941 0.295268,0.37342 0.598744,0.616039 0.674394,0.539154 0.07565,-0.07688 0.323894,-0.886399 0.551657,-1.798921 0.227762,-0.912523 0.414114,-1.948101 0.414114,-2.301282 0,-0.370465 -0.115624,-0.759661 -0.273288,-0.919897 -0.183077,-0.186068 -0.416313,-0.243243 -0.706593,-0.173214 -0.238318,0.0575 -0.807385,0.288569 -1.264592,0.5135 -0.457208,0.224931 -1.542035,0.952886 -2.410727,1.617677 -0.868692,0.664792 -2.23256,1.814702 -3.030817,2.555355 l -1.451376,1.346641 0.960867,0.652116 c 0.528475,0.358665 1.443448,1.102019 2.033273,1.651901 0.589824,0.549881 1.498383,1.601842 2.019019,2.337689 0.520638,0.735848 1.173161,1.801969 1.450052,2.369158 0.276892,0.567187 0.65084,1.439042 0.830996,1.937453 0.180156,0.498412 0.459657,1.400442 0.621115,2.004515 0.22613,0.846037 0.294057,1.75811 0.295728,3.970825 l 0.0022,2.872507 -0.445821,1.637675 c -0.245201,0.900719 -0.777661,2.309201 -1.183248,3.129951 -0.405584,0.82075 -1.181656,2.09878 -1.724604,2.840065 -0.542948,0.741285 -1.328804,1.665512 -1.746344,2.053845 -0.417542,0.388339 -1.23108,1.059138 -1.807863,1.490674 -0.576781,0.43153 -1.650374,1.079268 -2.385761,1.439405 -0.735385,0.360137 -2.010407,0.860275 -2.833381,1.11141 l -1.496315,0.456622 -2.743244,0.01699 c -2.128555,0.01315 -3.022647,-0.05186 -3.990173,-0.29031 -0.685811,-0.169007 -1.733232,-0.504882 -2.327601,-0.7464 -0.59437,-0.241518 -1.681381,-0.799605 -2.415581,-1.240203 -0.734199,-0.440592 -1.877977,-1.312088 -2.541728,-1.93665 -0.663749,-0.624562 -1.234459,-1.106767 -1.268241,-1.071572 -0.03378,0.03519 -0.451575,0.748329 -0.928427,1.584738 -0.476852,0.836409 -1.15858,2.155739 -1.514949,2.931836 -0.356371,0.776103 -0.811361,1.91666 -1.011091,2.534568 -0.19973,0.617914 -0.366611,1.541682 -0.370845,2.052817 l -0.0077,0.929343 0.665029,0.04841 c 0.498905,0.03634 0.997278,-0.115599 1.995087,-0.608137 0.731532,-0.361095 1.965991,-1.095214 2.743244,-1.631377 0.777252,-0.536157 1.936896,-1.396655 2.576987,-1.912223 0.64009,-0.515567 1.259033,-1.011566 1.375427,-1.102226 0.160517,-0.125025 0.183115,-0.08765 0.09357,0.154766 l -0.118062,0.319603 0.315582,-0.25346 0.315583,-0.253454 -0.350256,0.506914 c -0.19264,0.278801 -0.67602,0.807364 -1.074176,1.17459 -0.398156,0.367226 -1.285039,1.169104 -1.970849,1.781954 -0.685812,0.612856 -1.621008,1.38668 -2.078216,1.719611 -0.457207,0.332938 -1.313415,0.851245 -1.902684,1.151797 -0.68478,0.349268 -1.404717,0.573951 -1.995086,0.622628 z M 41.44491,74.179119 c 0.248268,0.0026 0.798931,-0.11542 1.223697,-0.261985 0.424766,-0.146566 1.156833,-0.502488 1.626819,-0.790926 0.469984,-0.288445 1.453043,-0.997064 2.184574,-1.574712 0.731532,-0.577642 1.591913,-1.337575 1.911959,-1.688733 l 0.5819,-0.638472 -0.748157,0.592331 c -0.411487,0.325778 -1.271868,0.938507 -1.911959,1.361613 -0.64009,0.423112 -1.626433,1.004829 -2.191873,1.292705 -0.565439,0.287882 -1.379134,0.603379 -1.808209,0.701102 -0.638238,0.145365 -0.851929,0.129879 -1.174836,-0.08515 -0.33254,-0.221445 -0.394699,-0.402669 -0.394699,-1.15073 0,-0.489339 0.186416,-1.467965 0.415293,-2.180173 0.22841,-0.710752 0.648927,-1.811178 0.93448,-2.445397 0.285553,-0.634212 1.125978,-2.255652 1.867612,-3.603196 0.741634,-1.347545 2.274033,-3.856766 3.405336,-5.576051 1.1313,-1.719285 2.629025,-3.911509 3.328276,-4.871615 0.699252,-0.960106 2.505825,-3.325763 4.01461,-5.257019 1.508784,-1.931255 3.560764,-4.453326 4.559953,-5.604604 0.999191,-1.151274 2.345875,-2.646324 2.992631,-3.322327 0.646756,-0.676005 1.197841,-1.294112 1.224635,-1.373571 0.02679,-0.07946 1.149029,-1.175146 2.493858,-2.43486 1.344828,-1.259713 3.043583,-2.758495 3.775009,-3.330625 0.731425,-0.572131 1.785687,-1.29931 2.342805,-1.615954 0.557116,-0.316644 1.353776,-0.623195 1.770353,-0.681225 l 0.757415,-0.10551 0.289983,0.449793 c 0.236096,0.366211 0.271652,0.676176 0.191344,1.668054 -0.05425,0.670044 -0.291091,1.842222 -0.526308,2.604841 -0.235217,0.76262 -0.514405,1.441061 -0.620413,1.507648 -0.115102,0.0723 -0.448163,-0.17996 -0.826794,-0.626209 -0.348728,-0.411002 -0.641231,-0.709258 -0.650008,-0.662792 -0.0088,0.04647 -0.108331,1.339097 -0.22123,2.872512 -0.112901,1.533414 -0.199441,2.798162 -0.192313,2.810551 0.0071,0.01238 1.006493,-0.843028 2.220809,-1.900927 l 2.207851,-1.923452 h -0.992674 c -0.54597,0 -1.032299,-0.06516 -1.08073,-0.144806 -0.04843,-0.07964 0.169049,-0.785734 0.483291,-1.569091 0.314242,-0.783357 0.693079,-1.907201 0.841859,-2.497431 0.170761,-0.677423 0.231214,-1.339481 0.163941,-1.795407 -0.0655,-0.443925 -0.270849,-0.889222 -0.53286,-1.155513 -0.234462,-0.238287 -0.673454,-0.480375 -0.97554,-0.537972 -0.326085,-0.06217 -0.94133,0.01112 -1.514242,0.18039 -0.530748,0.156811 -1.26651,0.439733 -1.635027,0.628716 -0.368519,0.188983 -1.268559,0.738835 -2.000091,1.221893 -0.731532,0.483059 -2.0034,1.427678 -2.826373,2.099154 -0.822973,0.671475 -2.059669,1.768445 -2.748213,2.437708 -0.688545,0.669264 -1.548926,1.493327 -1.911959,1.831249 -0.363032,0.337923 -1.295993,1.290978 -2.073245,2.117899 -0.777253,0.826922 -1.819493,1.957125 -2.316088,2.511564 -0.496595,0.554438 -1.666697,1.934075 -2.600225,3.06586 -0.933529,1.131786 -2.209803,2.728565 -2.836165,3.548396 -0.626361,0.819833 -1.195725,1.51595 -1.265254,1.54693 -0.06953,0.03097 -0.126415,0.131066 -0.126415,0.222422 0,0.09136 -0.52685,0.887915 -1.170775,1.770133 -0.643926,0.882219 -1.840978,2.630472 -2.660116,3.885006 -0.819138,1.254534 -1.489341,2.325468 -1.489341,2.379854 0,0.05441 -0.364322,0.715267 -0.809607,1.468622 -0.445284,0.753355 -1.225561,2.168128 -1.733948,3.143938 -0.508389,0.97581 -1.266434,2.625363 -1.684548,3.665681 -0.418113,1.040318 -0.90918,2.523041 -1.091259,3.294942 -0.18208,0.771901 -0.331578,1.687054 -0.332218,2.033677 -6.29e-4,0.346624 0.11263,0.919265 0.251713,1.272544 0.139083,0.353278 0.457049,0.770994 0.706593,0.928263 0.249543,0.157269 0.656844,0.287972 0.905113,0.290444 z m 7.637244,-4.895672 c 0.04572,0 0.258842,-0.190095 0.473605,-0.422429 0.214763,-0.232334 0.353069,-0.422429 0.307348,-0.422429 -0.04572,0 -0.258842,0.190095 -0.473605,0.422429 -0.214763,0.232334 -0.353069,0.422429 -0.307348,0.422429 z m 7.812872,-1.542665 c 0.05889,0.01207 0.874706,-0.05812 1.812921,-0.155986 0.938214,-0.09785 2.087081,-0.280314 2.553039,-0.405473 0.465956,-0.125159 1.273897,-0.391405 1.795425,-0.591654 0.521525,-0.200249 1.276672,-0.541579 1.678102,-0.758503 0.401431,-0.21693 1.036093,-0.590874 1.41036,-0.831 0.374268,-0.240119 1.240327,-0.932817 1.924576,-1.539325 0.684248,-0.606502 1.618849,-1.611331 2.076895,-2.232943 0.458045,-0.621618 1.128652,-1.705248 1.49024,-2.408081 0.361586,-0.702827 0.848325,-1.848148 1.081643,-2.545157 0.233317,-0.697002 0.513723,-1.792779 0.623123,-2.435057 0.128888,-0.756682 0.16459,-2.035561 0.101417,-3.63288 -0.05381,-1.360414 -0.206756,-2.843716 -0.341309,-3.309965 -0.134098,-0.464671 -0.399091,-1.29345 -0.588872,-1.841729 -0.189781,-0.548282 -0.619988,-1.498745 -0.956014,-2.112141 -0.336025,-0.613397 -0.912473,-1.533471 -1.280993,-2.04461 -0.368521,-0.511137 -1.047669,-1.310882 -1.509217,-1.777207 -0.461548,-0.466326 -1.175851,-1.120191 -1.587337,-1.453034 -0.411487,-0.332843 -0.990957,-0.746865 -1.287711,-0.920052 l -0.539555,-0.314882 -0.748938,0.747027 c -0.411917,0.410866 -0.748941,0.795279 -0.748941,0.854253 0,0.05898 0.355375,0.289582 0.789722,0.512462 0.443801,0.22773 1.51996,1.146043 2.456818,2.096463 1.177836,1.194883 1.877034,2.072684 2.382429,2.990992 0.393433,0.714871 0.900305,1.855421 1.126381,2.534553 0.226077,0.679133 0.493818,1.775868 0.594978,2.437188 0.101163,0.661319 0.137018,1.326651 0.07968,1.478511 -0.09024,0.239002 -0.445767,0.275768 -2.644895,0.273533 -1.397352,-0.0013 -2.623394,-0.05844 -2.724537,-0.12673 -0.101144,-0.06828 -0.23748,-0.618384 -0.30297,-1.222457 -0.06549,-0.604071 -0.310916,-1.706609 -0.545392,-2.450082 -0.234476,-0.743474 -0.72478,-1.960067 -1.089567,-2.70354 -0.364786,-0.743474 -0.994814,-1.87416 -1.400065,-2.512638 l -0.736817,-1.160868 -0.406068,0.387708 c -0.223339,0.213239 -0.406068,0.445391 -0.406068,0.515891 0,0.0705 0.366638,0.741684 0.814753,1.491521 0.448114,0.749837 1.080017,2.007361 1.404227,2.794498 0.32421,0.787138 0.710576,1.921931 0.858592,2.521761 0.148015,0.599831 0.245567,1.381399 0.216781,1.736818 l -0.05234,0.646213 -3.117323,0.04598 -3.117323,0.04598 -0.005,-2.91848 -0.005,-2.918484 -0.652157,0.760371 -0.652157,0.760371 -0.04947,2.11214 -0.04948,2.112138 -1.611195,0.04822 -1.611195,0.04822 -0.45037,0.543156 -0.450371,0.543162 2.061565,0.08449 2.061566,0.08448 0.04367,6.156861 c 0.03017,4.25439 -0.01202,6.212345 -0.136532,6.336424 -0.128111,0.12765 -0.332975,-0.01015 -0.708699,-0.476713 -0.290673,-0.360948 -0.994106,-1.31141 -1.563184,-2.112139 -0.569077,-0.800729 -1.439028,-2.200705 -1.933224,-3.111061 -0.494195,-0.910356 -1.076007,-2.221614 -1.292915,-2.913909 -0.216907,-0.69229 -0.431785,-1.258577 -0.477505,-1.258404 -0.04572,1.66e-4 -0.259987,0.264253 -0.476145,0.586851 -0.291947,0.435706 -0.363601,0.70699 -0.278635,1.054917 0.06291,0.257605 0.482192,1.244775 0.93174,2.193724 0.449548,0.948943 1.311394,2.46969 1.915218,3.379427 0.603821,0.909737 1.390111,2.009875 1.747311,2.444752 0.357201,0.434876 0.649456,0.916148 0.649456,1.069496 0,0.224435 -0.105384,0.257394 -0.540336,0.169001 -0.297185,-0.06041 -0.914415,-0.229639 -1.371622,-0.376102 -0.457208,-0.14647 -1.242773,-0.455804 -1.745701,-0.68741 -0.502928,-0.231613 -1.345492,-0.718167 -1.872363,-1.081235 -0.526872,-0.363062 -1.435942,-1.114553 -2.020156,-1.669977 l -1.062208,-1.009868 -0.515266,0.851092 c -0.28341,0.468097 -0.51528,0.917259 -0.51528,0.998142 0,0.08088 0.477479,0.60101 1.061064,1.155834 0.583587,0.55483 1.632964,1.371046 2.331951,1.813822 0.698987,0.442769 1.786969,1.018489 2.417741,1.27937 0.630772,0.260887 1.582716,0.596296 2.11543,0.745359 0.532717,0.14907 1.529693,0.334848 2.215504,0.412844 0.685811,0.078 1.295114,0.151681 1.354008,0.163732 z m 3.34276,-2.60015 c -0.435539,0.09218 -0.540336,0.06067 -0.540336,-0.162499 0,-0.152276 0.453946,-0.882921 1.00877,-1.62367 0.554824,-0.740742 1.39069,-1.971857 1.857482,-2.735807 0.466791,-0.763944 1.126062,-1.959277 1.465047,-2.656279 0.338986,-0.697009 0.803987,-1.875584 1.033338,-2.61906 0.229348,-0.743469 0.468225,-1.769973 0.530835,-2.281108 0.06261,-0.511142 0.151457,-1.064267 0.197434,-1.229168 l 0.0836,-0.299825 2.689188,0.04636 2.689188,0.04637 0.05174,0.636013 c 0.02846,0.34981 -0.110526,1.300273 -0.308853,2.112146 -0.198326,0.811866 -0.603228,2.013547 -0.899782,2.670392 -0.296555,0.656845 -0.804507,1.594669 -1.128782,2.084053 -0.324277,0.489383 -1.046915,1.375842 -1.605865,1.969903 -0.55895,0.594061 -1.557961,1.44475 -2.220025,1.890419 -0.662062,0.445669 -1.503013,0.950891 -1.868779,1.122721 -0.365766,0.171824 -1.076515,0.447923 -1.579443,0.613546 -0.502929,0.165622 -1.157567,0.352595 -1.454751,0.415487 z m 0.04157,-0.419408 c 0.04572,0 0.08313,-0.038 0.08313,-0.08449 0,-0.04649 -0.03741,-0.08448 -0.08313,-0.08448 -0.04572,0 -0.08313,0.038 -0.08313,0.08448 0,0.04649 0.03741,0.08449 0.08313,0.08449 z m 0.421006,-0.168969 c 0.09439,0 0.772132,-0.235361 1.506091,-0.523027 0.733959,-0.287665 1.879205,-0.893317 2.544991,-1.34589 0.665787,-0.452579 1.741797,-1.39129 2.391133,-2.086032 0.649337,-0.694741 1.514363,-1.842624 1.922284,-2.550847 0.407919,-0.708223 0.936347,-1.910306 1.174285,-2.671293 0.237937,-0.760987 0.495805,-1.820828 0.573038,-2.355203 l 0.140425,-0.971582 h -2.375374 -2.375373 l -0.106831,0.802613 c -0.05875,0.441435 -0.255269,1.372892 -0.436698,2.0699 -0.181427,0.697003 -0.579379,1.852479 -0.884338,2.56772 -0.304959,0.715242 -0.941982,1.952456 -1.415609,2.749366 -0.473625,0.79691 -1.304052,2.056042 -1.845392,2.798062 -0.541338,0.742025 -0.984252,1.386724 -0.984252,1.432673 0,0.04592 0.07723,0.08354 0.17162,0.08354 z M 58.246441,64.21431 c -0.173562,0 -0.207107,-1.227475 -0.17202,-6.294179 l 0.04359,-6.294179 h 3.075759 3.075758 l 0.05765,0.506914 c 0.03171,0.278801 -0.03097,0.925115 -0.139271,1.436256 -0.108306,0.511135 -0.307903,1.271509 -0.44355,1.689711 -0.135648,0.418207 -0.52794,1.36867 -0.871758,2.112139 -0.343821,0.743476 -0.985335,1.922051 -1.425588,2.619059 -0.440254,0.697003 -1.291973,1.932608 -1.892709,2.745784 -0.600737,0.813169 -1.189272,1.478495 -1.307857,1.478495 z m 0.837051,-1.62888 c 0.393855,-0.5446 1.091203,-1.560452 1.549664,-2.25746 0.458461,-0.697003 1.06543,-1.685489 1.348822,-2.196624 0.283392,-0.511135 0.735525,-1.499622 1.004744,-2.196624 0.269217,-0.697009 0.578749,-1.685489 0.687847,-2.19663 0.1091,-0.511136 0.23291,-1.100426 0.275135,-1.309527 l 0.07677,-0.380184 h -2.829541 -2.82954 v 5.763611 5.76361 z m -4.738117,2.129478 c 0.0282,0.0032 -0.279482,-0.430898 -0.683748,-0.965266 -0.404266,-0.534375 -1.147702,-1.617903 -1.65208,-2.407845 -0.504378,-0.789936 -1.162283,-1.930493 -1.462013,-2.534568 -0.299728,-0.604069 -0.706568,-1.499296 -0.904087,-1.989382 l -0.359125,-0.891076 -1.152773,1.717522 c -0.634027,0.944632 -1.206577,1.809908 -1.272337,1.922818 -0.0699,0.120037 0.125631,0.496427 0.470794,0.906256 0.324696,0.385529 1.019684,1.036709 1.544417,1.447075 0.524734,0.410365 1.442014,1.018713 2.0384,1.351874 0.596384,0.333168 1.601146,0.792625 2.232803,1.021018 0.631656,0.228388 1.171543,0.4181 1.199749,0.421574 z m 1.784091,-1.514425 c 0.04212,0 0.07658,-2.511495 0.07658,-5.581103 v -5.581095 l -2.108768,0.04726 -2.108767,0.04726 -0.536282,0.760374 -0.536283,0.760367 0.376347,1.182797 c 0.20699,0.650542 0.569008,1.601004 0.804483,2.112145 0.235477,0.511135 0.790978,1.53764 1.234445,2.281109 0.44347,0.743475 1.237262,1.941056 1.763983,2.661298 0.526721,0.720243 0.992137,1.309527 1.034258,1.309527 z M 43.806273,59.7142 c 0.116239,-0.173561 0.406821,-0.658895 0.645743,-1.078521 l 0.4344,-0.762953 -0.565464,-1.425317 c -0.311006,-0.78392 -0.692167,-2.140495 -0.847026,-3.014602 -0.238762,-1.347704 -0.246502,-1.6128 -0.05093,-1.744001 0.126847,-0.0851 1.438397,-0.134048 2.914557,-0.108784 l 2.683925,0.04592 0.574259,-0.844858 c 0.376898,-0.554492 0.6438,-1.211923 0.776599,-1.912911 0.111286,-0.587431 0.345483,-1.523446 0.520433,-2.080032 0.174953,-0.556588 0.556049,-1.520667 0.846882,-2.142397 0.290832,-0.621731 0.894797,-1.731891 1.342145,-2.467022 0.447349,-0.735131 1.341258,-2.050416 1.986464,-2.922853 0.645206,-0.872439 1.258676,-1.557395 1.363267,-1.522124 0.124607,0.04202 0.206337,0.74675 0.237076,2.044223 l 0.04691,1.980093 0.655236,-0.726597 0.655235,-0.726594 0.0045,-1.309527 c 0.0032,-0.935108 0.06386,-1.308198 0.212265,-1.304876 0.114302,0.0026 0.39486,0.266594 0.623465,0.586747 0.228603,0.320154 0.46666,0.58419 0.529015,0.586748 0.06235,0.0026 0.265519,-0.212508 0.451478,-0.477928 l 0.338111,-0.482566 -0.238371,-0.320035 c -0.131104,-0.176017 -0.240749,-0.459139 -0.243659,-0.629159 -0.0045,-0.261693 0.07762,-0.290377 0.535049,-0.186938 0.297185,0.0672 0.622953,0.130272 0.723929,0.140153 0.100975,0.0099 0.568573,-0.316821 1.039108,-0.726007 0.470533,-0.409186 0.855515,-0.799513 0.855515,-0.867392 0,-0.06788 -0.168336,-0.173787 -0.374079,-0.235351 -0.205744,-0.06156 -0.785566,-0.237369 -1.288494,-0.390677 -0.68739,-0.20954 -1.616124,-0.281032 -3.740787,-0.287959 -1.874609,-0.0061 -3.106303,0.06744 -3.657659,0.218414 -0.457207,0.125196 -1.205365,0.351488 -1.662572,0.502873 -0.457207,0.151385 -1.392405,0.569753 -2.078215,0.929705 -0.685811,0.359955 -1.695824,0.980602 -2.244473,1.379215 -0.548649,0.398613 -1.488978,1.246479 -2.089622,1.884147 -0.600642,0.637667 -1.414209,1.644369 -1.807924,2.237114 -0.393714,0.592744 -0.96872,1.633963 -1.277787,2.313819 -0.309067,0.679858 -0.747271,1.939927 -0.973786,2.800154 -0.228763,0.868768 -0.457346,2.318961 -0.514201,3.262233 -0.0563,0.933998 -0.0216,2.331784 0.07709,3.106194 0.0987,0.774405 0.337759,1.95298 0.531249,2.619054 0.19349,0.666073 0.686611,1.923327 1.095825,2.793897 l 0.744024,1.582855 0.211341,-0.315574 z m 2.320397,-9.355529 c -2.271278,0 -2.748965,-0.04266 -2.828202,-0.252508 -0.05244,-0.138884 0.05423,-1.006837 0.237031,-1.928788 0.182805,-0.921953 0.585969,-2.272417 0.895921,-3.001031 0.30995,-0.728616 0.857605,-1.780599 1.217007,-2.337739 0.359406,-0.557143 1.143493,-1.516167 1.742416,-2.13117 0.598925,-0.615001 1.611606,-1.457132 2.250402,-1.871401 0.638794,-0.414268 1.498117,-0.907999 1.909604,-1.097179 0.411486,-0.189178 1.122235,-0.461626 1.579443,-0.605438 0.457207,-0.143811 1.074437,-0.304562 1.371622,-0.357223 0.405769,-0.0719 0.540336,-0.03435 0.540336,0.150791 0,0.135598 -0.473768,0.875058 -1.052821,1.643246 -0.57905,0.768188 -1.398048,1.944102 -1.819996,2.61314 -0.421947,0.669038 -1.023316,1.733557 -1.336375,2.365597 -0.313061,0.63204 -0.725449,1.567367 -0.916418,2.078506 -0.190972,0.511138 -0.456242,1.385564 -0.589492,1.943169 -0.13325,0.557605 -0.292975,1.413022 -0.354946,1.900926 l -0.112672,0.887102 z m -6.91e-4,-0.506914 h 2.389256 l 0.115953,-1.04162 c 0.06377,-0.572891 0.306545,-1.656419 0.53949,-2.407841 0.232946,-0.751422 0.756966,-2.050555 1.164487,-2.886963 0.407523,-0.836407 1.296297,-2.357149 1.975057,-3.379425 0.678758,-1.022276 1.429837,-2.104157 1.669065,-2.404179 l 0.434984,-0.545496 -1.140765,0.394419 c -0.627422,0.216931 -1.552253,0.603334 -2.05518,0.858677 -0.502929,0.25534 -1.459332,0.884596 -2.12534,1.398343 -0.666008,0.513745 -1.621967,1.437333 -2.124355,2.052416 -0.502386,0.615083 -1.253112,1.7867 -1.668278,2.603594 -0.430594,0.847254 -0.928552,2.181205 -1.159225,3.105392 -0.222399,0.89107 -0.404369,1.762453 -0.404369,1.936404 v 0.316279 h 2.389254 z m -0.915241,7.421932 c 0.05799,-0.007 0.81618,-1.114999 1.684874,-2.462135 0.868694,-1.347129 1.604382,-2.519944 1.634862,-2.606255 0.03249,-0.09198 -0.947951,-0.156918 -2.369157,-0.156918 -1.995241,0 -2.424584,0.04292 -2.424584,0.242412 0,0.133327 0.107763,0.763056 0.239474,1.399408 0.131709,0.636351 0.43964,1.705835 0.684291,2.376641 0.244649,0.670806 0.492261,1.213885 0.550248,1.206847 z m 9.745553,-7.421932 h 1.249733 l -0.006,-1.562986 -0.006,-1.562984 -0.417374,0.506913 c -0.229556,0.278803 -0.789246,0.982146 -1.243755,1.562984 l -0.82638,1.056073 h 1.249734 z m 6.233294,0 h 2.822216 l -0.09678,-0.549159 c -0.0532,-0.302036 -0.20781,-1.0052 -0.343552,-1.562585 -0.135741,-0.557387 -0.433493,-1.469832 -0.661669,-2.027655 -0.228178,-0.557825 -0.830663,-1.749398 -1.338856,-2.64794 l -0.923988,-1.633715 -0.76414,0.853377 c -0.420279,0.469359 -0.93318,1.086237 -1.139783,1.370842 l -0.375642,0.517466 v 2.839683 2.839686 z m 7.38796,0 h 2.375713 l -0.128059,-0.802616 c -0.07045,-0.441437 -0.210354,-1.168926 -0.310907,-1.61664 -0.100552,-0.447715 -0.363526,-1.266001 -0.584385,-1.818413 -0.22086,-0.552413 -0.682952,-1.475163 -1.02687,-2.050556 -0.343919,-0.575393 -1.148803,-1.60627 -1.788628,-2.290836 -0.639828,-0.684567 -1.726676,-1.620541 -2.415221,-2.079941 l -1.251898,-0.835276 -0.644392,0.654911 -0.644392,0.654912 0.941946,1.586072 c 0.518071,0.872341 1.199672,2.13706 1.514669,2.810489 0.314997,0.673428 0.753898,1.890021 0.975336,2.70354 0.221438,0.813518 0.449589,1.840301 0.507006,2.281738 l 0.104393,0.802616 z M 51.182294,48.632593 c 0.254519,-0.30527 1.054414,-1.315407 1.777544,-2.244749 0.723131,-0.929342 1.751886,-2.193409 2.286124,-2.809039 l 0.971341,-1.119324 -0.0472,-1.919851 -0.0472,-1.919852 -1.092804,1.518435 c -0.601043,0.83514 -1.428427,2.088714 -1.83863,2.785721 -0.410205,0.697006 -0.949532,1.711666 -1.198505,2.254803 -0.248972,0.543134 -0.637344,1.635168 -0.86305,2.426741 -0.225703,0.791575 -0.410371,1.471383 -0.410371,1.510688 0,0.0393 0.208242,-0.178304 0.462761,-0.483573 z m 7.228434,-8.595251 c 0.02383,-0.03873 0.17053,-0.225171 0.325992,-0.414327 l 0.282656,-0.343923 -0.324896,-0.500934 -0.324897,-0.500934 -0.0012,0.915262 c -6.91e-4,0.503392 0.01841,0.883578 0.04224,0.844856 z m 2.191324,-2.351517 c 0.04032,0 0.119555,-0.07604 0.17607,-0.168971 0.05652,-0.09294 0.02352,-0.168971 -0.07332,-0.168971 -0.09684,0 -0.17607,0.07604 -0.17607,0.168971 0,0.09293 0.03299,0.168971 0.07332,0.168971 z M 60.27935,37.347883 c 0.04572,0 0.08313,-0.03802 0.08313,-0.08449 0,-0.04647 -0.03741,-0.08449 -0.08313,-0.08449 -0.04572,0 -0.08313,0.03802 -0.08313,0.08449 0,0.04647 0.03741,0.08449 0.08313,0.08449 z"
         id="path7716" />
      <path
         style="opacity:0.970588;fill:#ffffff;fill-opacity:1;stroke:#ffffff;stroke-width:0.0801989;stroke-linejoin:round;stroke-opacity:1;paint-order:stroke fill markers"
         d="m 43.836339,50.28239 c -0.154533,-0.01664 -0.331905,-0.05496 -0.394163,-0.08517 -0.09849,-0.04778 -0.114782,-0.08026 -0.125413,-0.249976 -0.01475,-0.235399 0.07304,-0.874388 0.231779,-1.687107 0.453977,-2.324306 1.457243,-4.631352 2.691502,-6.189203 1.413936,-1.784637 2.887066,-3.0141 4.91304,-4.100388 0.691507,-0.370773 1.704085,-0.75267 2.679448,-1.010564 0.859598,-0.227285 1.183334,-0.245368 1.183334,-0.0661 0,0.176832 -0.3628,0.726404 -1.619347,2.452997 -0.629676,0.865225 -1.493068,2.201139 -1.959885,3.0325 -1.454533,2.590402 -2.177088,4.70565 -2.521984,7.382987 l -0.06967,0.540805 -2.36384,0.0047 c -1.300111,0.0026 -2.490273,-0.0089 -2.644804,-0.02552 z m 4.750509,-0.890566 c 0.179963,-1.788113 0.713589,-3.605054 1.642345,-5.592015 0.732103,-1.566246 2.683034,-4.672698 3.909809,-6.225555 0.160181,-0.202758 0.275417,-0.374011 0.256078,-0.380563 -0.10764,-0.03646 -2.159894,0.737091 -2.946376,1.110577 -0.701454,0.333109 -1.800574,1.051999 -2.601463,1.701513 -0.644379,0.522584 -1.809372,1.728846 -2.226638,2.305514 -1.437862,1.987146 -2.285769,4.002072 -2.817331,6.694982 -0.05491,0.278178 -0.09984,0.58914 -0.09984,0.691027 v 0.18525 h 2.417011 2.41701 z"
         id="path7787" />
      <path
         style="opacity:0.970588;fill:#ffffff;fill-opacity:1;stroke:#ffffff;stroke-width:0.0801989;stroke-linejoin:round;stroke-opacity:1;paint-order:stroke fill markers"
         d="m 40.90489,74.437798 c -0.656799,-0.140174 -1.244693,-0.771055 -1.454677,-1.561051 -0.25861,-0.972926 -0.213067,-1.86988 0.176867,-3.483268 0.160066,-0.662281 0.614071,-2.074296 0.934446,-2.906232 0.43916,-1.140402 1.207022,-2.765486 2.616991,-5.538536 l 0.229297,-0.450969 -0.110875,-0.210013 c -1.146309,-2.171258 -1.613753,-3.270908 -2.1752,-5.117114 L 40.865474,54.32794 v -3.306012 -3.306011 l 0.255223,-0.917452 c 0.512822,-1.843439 1.190737,-3.435347 2.173622,-5.104186 0.82901,-1.407573 2.728516,-3.4847 4.2024,-4.595357 1.006606,-0.758536 2.579843,-1.62124 4.00847,-2.198092 1.425813,-0.575717 2.408086,-0.832407 3.526253,-0.921491 0.656118,-0.05227 3.869178,-0.05235 4.542979,-1.2e-4 0.75656,0.05866 1.088688,0.126302 2.363175,0.481301 0.630997,0.17576 1.194746,0.319563 1.252773,0.319563 0.242933,0 0.5976,-0.245957 1.68236,-1.166697 1.881346,-1.596868 4.180235,-3.320301 5.30141,-3.974353 0.482922,-0.281719 1.569413,-0.804467 1.968035,-0.94689 0.710362,-0.253802 1.254007,-0.368261 1.855656,-0.390689 0.449839,-0.01677 0.59912,-0.0078 0.788322,0.0475 0.589409,0.17219 1.140639,0.766001 1.377907,1.484346 0.301248,0.912055 -0.05537,2.842445 -0.89393,4.838888 -0.127769,0.30419 -0.311801,0.71394 -0.40896,0.910554 -0.09716,0.196615 -0.176655,0.375869 -0.176655,0.398342 0,0.02644 0.284448,0.04086 0.806092,0.04086 0.841261,0 1.143271,0.03722 1.291437,0.159157 0.0824,0.06781 0.08438,0.08013 0.03001,0.187062 -0.185192,0.364256 -2.428704,2.356573 -3.991078,3.544218 -0.735673,0.559225 -0.901686,0.657239 -1.011783,0.597355 -0.123737,-0.0673 -0.123655,-0.0724 0.03479,-2.184366 0.04628,-0.616918 0.119542,-1.599378 0.162798,-2.183247 0.114611,-1.547068 0.206937,-2.073313 0.375264,-2.138961 0.09465,-0.03691 0.417252,0.22913 0.746641,0.615732 0.331961,0.38962 0.578036,0.601859 0.69781,0.601859 0.0418,0 0.09358,-0.07997 0.149162,-0.230342 0.157203,-0.425329 0.512744,-1.78556 0.677989,-2.593858 0.137255,-0.671383 0.164154,-0.879076 0.166021,-1.281906 0.002,-0.422994 -0.009,-0.506079 -0.09142,-0.691952 -0.170147,-0.383805 -0.470624,-0.539936 -0.866035,-0.450003 -1.442222,0.328024 -4.092129,2.223196 -7.349413,5.256187 l -0.860019,0.800798 0.662937,0.454354 c 1.078823,0.739388 2.154421,1.630395 2.811792,2.329242 1.896177,2.015813 3.246145,4.298359 4.070856,6.883057 0.36343,1.139017 0.506586,1.72068 0.581485,2.362671 0.0644,0.552014 0.113886,2.311944 0.115173,4.096214 l 0.0012,1.611678 -0.277396,1.012224 c -0.695642,2.538413 -1.318038,3.949123 -2.620483,5.939554 -0.695278,1.062541 -1.658286,2.240063 -2.327935,2.846492 -2.218944,2.009462 -4.247004,3.127861 -7.442696,4.104369 l -0.938452,0.286763 -1.89763,0.0215 c -1.99197,0.02257 -3.2434,-0.01814 -3.99814,-0.130057 -1.080881,-0.160272 -2.717479,-0.677132 -3.834927,-1.211123 -1.65847,-0.792528 -2.963541,-1.678766 -4.427798,-3.006804 -0.758181,-0.687647 -1.073889,-0.941932 -1.138282,-0.91682 -0.112102,0.04372 -1.297267,2.163435 -1.998257,3.573963 -1.009655,2.031626 -1.539708,3.4344 -1.755886,4.64691 -0.05637,0.316179 -0.132384,1.818986 -0.09231,1.824962 0.274994,0.04102 0.907997,0.05784 1.11328,0.02958 0.51641,-0.07109 1.327271,-0.418474 2.416377,-1.035204 1.517679,-0.859418 3.013839,-1.91204 5.109842,-3.595023 0.451008,-0.362136 0.82855,-0.649756 0.838981,-0.639156 0.01042,0.01059 -0.01887,0.122036 -0.0651,0.247634 -0.04624,0.125598 -0.07614,0.236418 -0.06645,0.246265 0.0097,0.0099 0.107083,-0.05449 0.216427,-0.142971 0.109346,-0.08848 0.209777,-0.160879 0.223181,-0.160879 0.0499,0 -0.34524,0.513189 -0.673387,0.874573 -0.497741,0.548151 -2.751065,2.580177 -3.886633,3.504928 -0.710148,0.578307 -0.903967,0.71659 -1.621222,1.156672 -0.989921,0.607379 -1.834619,0.98202 -2.545672,1.129066 -0.379225,0.07842 -1.072265,0.112251 -1.300732,0.0635 z m 1.091602,-0.31809 c 0.548987,-0.117783 0.916019,-0.254503 1.608403,-0.599123 0.883777,-0.439886 2.122629,-1.308914 3.547452,-2.488465 0.54819,-0.453823 1.86039,-1.746096 1.817393,-1.789797 -0.01235,-0.01255 -0.19289,0.110524 -0.401182,0.273515 -2.498311,1.954979 -4.966414,3.366963 -6.400251,3.661538 -0.480913,0.0988 -0.731858,0.07071 -1.003015,-0.112265 -0.26613,-0.179586 -0.33965,-0.315152 -0.38369,-0.707499 -0.09743,-0.867972 0.208372,-2.199688 0.929451,-4.047656 0.982518,-2.517984 3.411663,-6.786237 6.417822,-11.276768 2.243776,-3.351698 3.62673,-5.232524 6.980943,-9.494118 2.776129,-3.527131 4.727816,-5.826014 7.158984,-8.432541 0.482937,-0.51777 0.997495,-1.085614 1.143465,-1.261876 0.627458,-0.757673 3.306655,-3.280645 5.385713,-5.071672 1.767904,-1.52298 3.372517,-2.578362 4.492474,-2.95478 0.311689,-0.104759 1.035798,-0.245849 1.261756,-0.245849 0.09763,0 0.468322,0.595719 0.523468,0.841251 0.172688,0.768875 -0.16052,2.868381 -0.691692,4.358288 -0.232655,0.652583 -0.3892,0.969715 -0.478506,0.969371 -0.125854,-4.91e-4 -0.301217,-0.151461 -0.846208,-0.728521 -0.385742,-0.408441 -0.550862,-0.558423 -0.574577,-0.521899 -0.03466,0.05339 -0.04392,0.166356 -0.263318,3.213602 -0.07377,1.024524 -0.144421,2.003378 -0.157016,2.175233 -0.02134,0.291133 -0.01812,0.30975 0.04716,0.272744 0.143658,-0.08143 4.386131,-3.767071 4.386131,-3.810439 0,-0.01714 -0.412391,-0.03899 -0.916425,-0.04854 -0.96072,-0.01821 -1.133214,-0.04687 -1.133214,-0.18832 0,-0.128062 0.184878,-0.690012 0.501821,-1.525323 0.386061,-1.017475 0.737379,-2.089372 0.862491,-2.63153 0.135747,-0.588242 0.172236,-1.478312 0.07592,-1.851939 -0.158979,-0.616726 -0.490233,-1.03968 -1.024627,-1.308275 -0.285611,-0.143554 -0.344915,-0.158325 -0.687618,-0.171269 -0.635518,-0.02401 -1.325424,0.138934 -2.366799,0.558978 -1.357364,0.547501 -4.019147,2.374651 -6.218524,4.268636 -2.239042,1.928142 -4.952308,4.616026 -7.757706,7.685138 -1.263864,1.382668 -3.514666,4.080731 -5.26347,6.309382 -0.25069,0.319476 -0.695757,0.887319 -0.989039,1.261877 -0.293282,0.374557 -0.651318,0.811782 -0.795638,0.97161 -0.144319,0.159829 -0.262398,0.319873 -0.262398,0.355653 0,0.08827 -0.470764,0.809414 -1.152951,1.766155 -1.779592,2.495816 -3.812878,5.579578 -4.20711,6.380669 -0.07048,0.143214 -0.417145,0.765139 -0.770371,1.382057 -1.292855,2.257998 -2.155723,3.924086 -2.894191,5.588309 -0.906208,2.042242 -1.537997,3.972825 -1.822234,5.568282 -0.315034,1.768312 0.228044,3.103891 1.391413,3.421868 0.290081,0.07928 0.50362,0.07568 0.92951,-0.0157 z m 7.272377,-4.938457 c 0.166725,-0.134987 0.6229,-0.661165 0.6229,-0.718491 0,-0.01794 -0.024,-0.03262 -0.05333,-0.03262 -0.07292,0 -0.774408,0.742263 -0.774408,0.819422 0,0.08679 0.02257,0.07927 0.20484,-0.06831 z m 8.782039,-1.511973 c 2.24265,-0.221175 3.045732,-0.376657 4.450852,-0.861714 2.481048,-0.856475 4.473436,-2.149042 6.4308,-4.171996 0.957341,-0.989421 1.363013,-1.510361 2.054278,-2.637972 0.615763,-1.004453 1.009796,-1.803305 1.491827,-3.024498 0.357714,-0.90624 0.743971,-2.28993 0.883458,-3.164816 0.190705,-1.196138 0.165994,-3.671354 -0.057,-5.709277 -0.10136,-0.926324 -0.1509,-1.145524 -0.508289,-2.249061 -0.563037,-1.738518 -1.132594,-2.910412 -2.185857,-4.497509 -0.988537,-1.489564 -2.526315,-3.080891 -4.018003,-4.157921 -0.441203,-0.318558 -1.169573,-0.771976 -1.240101,-0.771976 -0.02048,0 -0.369312,0.34283 -0.775171,0.761843 -0.558662,0.576769 -0.734888,0.782487 -0.725421,0.846821 0.0087,0.05903 0.120829,0.149264 0.367248,0.295497 0.618507,0.367042 1.012854,0.642951 1.437861,1.006013 1.387978,1.185677 2.790298,2.709277 3.478904,3.779775 0.501959,0.78034 1.200608,2.282975 1.500592,3.227431 0.165451,0.520901 0.433898,1.615824 0.519897,2.120521 0.08816,0.517395 0.154616,1.339254 0.1224,1.513776 -0.03725,0.201801 -0.145028,0.263521 -0.540951,0.309784 -0.703491,0.0822 -4.533046,0.03154 -4.775913,-0.06318 -0.112184,-0.04375 -0.252578,-0.553178 -0.325071,-1.179521 -0.03786,-0.327106 -0.206957,-1.206341 -0.319375,-1.66061 -0.400539,-1.618538 -1.228624,-3.527875 -2.372027,-5.469244 -0.241302,-0.409705 -1.045392,-1.700686 -1.095725,-1.759209 -0.02671,-0.03106 -0.715993,0.683735 -0.785109,0.814172 l -0.07035,0.13277 0.197791,0.375714 c 0.108786,0.206643 0.371778,0.673156 0.584427,1.036697 0.486918,0.832419 1.197199,2.252597 1.492621,2.984439 0.323173,0.800582 0.792239,2.250958 0.887463,2.744079 0.04467,0.231345 0.09949,0.588397 0.121803,0.79345 0.04037,0.370888 0.01563,1.07878 -0.04097,1.171839 -0.02865,0.04712 -0.509625,0.05853 -5.349299,0.126908 l -0.837592,0.01183 V 47.42935 c 0,-1.603132 -0.0133,-2.913639 -0.02956,-2.91224 -0.02495,0.0021 -0.733974,0.816116 -1.186365,1.361964 l -0.131982,0.159249 -0.0503,2.084003 c -0.02766,1.146201 -0.06164,2.095524 -0.07549,2.109606 -0.01385,0.01407 -0.735738,0.04685 -1.604185,0.07282 -1.249925,0.03737 -1.590122,0.05883 -1.632404,0.102938 -0.136167,0.142059 -0.846747,1.020545 -0.847046,1.047199 -1.66e-4,0.01653 0.07504,0.03012 0.16718,0.03021 0.338766,3.38e-4 3.907648,0.162278 3.923143,0.178025 0.0088,0.009 0.03087,1.996035 0.04902,4.415733 0.03039,4.050503 0.003,7.363037 -0.06461,7.813938 -0.04722,0.314949 -0.168049,0.32016 -0.466168,0.0201 -0.378957,-0.381422 -1.719777,-2.206709 -2.452351,-3.338434 -1.287286,-1.988683 -2.054335,-3.50957 -2.66034,-5.274868 -0.298438,-0.869352 -0.375749,-1.050546 -0.448244,-1.050546 -0.128091,0 -0.660171,0.789085 -0.755075,1.119794 -0.09785,0.340953 -0.04425,0.537747 0.469656,1.724436 0.70116,1.619089 1.692635,3.401501 2.74085,4.927326 0.398617,0.580244 0.662279,0.943875 1.580158,2.179274 0.421571,0.567406 0.530175,0.85294 0.359686,0.945673 -0.09615,0.0523 -0.212633,0.03351 -0.925726,-0.149321 -1.764369,-0.452368 -3.566954,-1.305592 -4.881134,-2.310407 -0.547218,-0.418396 -1.394966,-1.155273 -2.075815,-1.804327 -0.336022,-0.320332 -0.619818,-0.582008 -0.630658,-0.581504 -0.02328,0.001 -0.429348,0.678467 -0.777989,1.297812 -0.151736,0.26955 -0.24683,0.484667 -0.24683,0.558366 0,0.10179 0.09966,0.220696 0.66022,0.787728 0.900606,0.911004 1.944714,1.744588 2.946356,2.352281 1.744041,1.058105 3.6598,1.809636 5.442155,2.134901 0.67344,0.122898 2.15282,0.308416 2.500196,0.313533 0.162591,0.0024 0.659235,-0.03151 1.103652,-0.07533 z m -3.789027,-3.134352 c -0.04955,-0.07193 -0.314115,-0.437233 -0.587914,-0.81179 -1.993751,-2.727444 -3.111151,-4.702875 -4.256058,-7.524201 -0.06997,-0.172415 -0.139904,-0.298603 -0.155417,-0.280418 -0.03421,0.0401 -1.074186,1.591726 -1.867315,2.785998 -0.317827,0.478575 -0.577868,0.899587 -0.577868,0.935581 0,0.104149 0.18129,0.442955 0.36951,0.690567 0.210774,0.27728 0.909101,0.969782 1.3648,1.353413 0.999549,0.84147 2.376674,1.685778 3.697077,2.266661 0.62998,0.277148 2.074396,0.796412 2.090333,0.751472 0.0071,-0.02008 -0.02759,-0.09535 -0.07715,-0.167283 z m 1.910743,-1.622997 c 0.01323,-0.170754 0.03608,-2.696889 0.05077,-5.613634 l 0.02672,-5.303172 -0.291941,0.02424 c -0.160566,0.01333 -1.019169,0.03591 -1.908003,0.05018 -0.888833,0.01426 -1.725756,0.03729 -1.859829,0.05116 l -0.24377,0.02522 -0.514992,0.732494 c -0.283244,0.402871 -0.51499,0.764811 -0.51499,0.804308 0,0.121882 0.607334,1.914221 0.884618,2.610644 0.485079,1.218318 1.314247,2.712325 2.456028,4.425303 0.691274,1.037094 1.781047,2.503722 1.860383,2.503722 0.01702,0 0.04177,-0.139708 0.05501,-0.310462 z M 43.911665,59.586985 c 0.419402,-0.674443 0.974254,-1.652177 0.974254,-1.716786 0,-0.0303 -0.15913,-0.459754 -0.353623,-0.954334 -0.384903,-0.978785 -0.641081,-1.774658 -0.851903,-2.646622 -0.177598,-0.73454 -0.327856,-1.593581 -0.357388,-2.043204 -0.02072,-0.315491 -0.01445,-0.371894 0.05027,-0.451442 0.125964,-0.15484 0.682953,-0.181387 3.325785,-0.15852 l 2.345259,0.02029 0.106087,-0.153075 c 0.799905,-1.15421 1.0218,-1.619368 1.232548,-2.583795 0.184179,-0.842844 0.410103,-1.723724 0.55636,-2.169256 0.693907,-2.113822 1.874533,-4.277979 3.817489,-6.997692 0.763397,-1.068587 1.578914,-2.030281 1.672064,-1.971772 0.11916,0.07485 0.195326,0.91297 0.227874,2.507478 0.01372,0.671999 0.03592,1.28754 0.04933,1.367869 l 0.02439,0.146052 0.650367,-0.723049 0.650367,-0.723049 0.02233,-1.165595 c 0.01828,-0.953978 0.03401,-1.192867 0.08667,-1.315817 0.03539,-0.08262 0.08605,-0.150224 0.112571,-0.150224 0.06236,0 0.500469,0.458539 0.804043,0.841536 0.130511,0.164657 0.269729,0.305725 0.309372,0.313484 0.09755,0.01909 0.259295,-0.142671 0.583651,-0.583721 l 0.272179,-0.370101 -0.154838,-0.210763 c -0.379115,-0.516042 -0.458009,-0.952121 -0.172181,-0.951711 0.05886,8e-5 0.3281,0.04417 0.598325,0.09797 l 0.491316,0.09781 0.188069,-0.10403 c 0.474227,-0.26232 1.686967,-1.355379 1.686967,-1.520486 0,-0.06229 -0.04692,-0.109377 -0.167518,-0.168111 -0.289015,-0.140752 -1.764654,-0.559389 -2.197449,-0.623414 -1.219884,-0.180463 -4.821493,-0.191948 -6.168625,-0.01967 -0.592709,0.0758 -2.150625,0.548211 -2.95621,0.896423 -1.065552,0.460582 -2.527629,1.273368 -3.426037,1.904576 -1.337498,0.939705 -3.125818,2.82615 -4.101028,4.326052 -0.568016,0.873626 -1.143657,1.971498 -1.457973,2.78067 -0.624356,1.607344 -0.936163,2.831205 -1.174589,4.610321 -0.07385,0.551053 -0.08598,0.829183 -0.08648,1.982949 -6.65e-4,1.671396 0.05675,2.217914 0.398113,3.78563 0.274382,1.260109 0.712576,2.413223 1.762062,4.636895 0.163776,0.347016 0.306156,0.630938 0.316396,0.630938 0.01024,0 0.150334,-0.211815 0.311323,-0.4707 z m 1.598801,-2.663961 c 0.442076,-0.607516 2.298075,-3.464752 2.903376,-4.469634 0.175784,-0.291825 0.169082,-0.305282 -0.177212,-0.35587 -0.119421,-0.01745 -1.103991,-0.03172 -2.187935,-0.03172 -2.030675,0 -2.265783,0.01639 -2.320676,0.16177 -0.06446,0.170734 0.299584,1.893353 0.626154,2.962877 0.312614,1.023807 0.74599,2.103127 0.844464,2.103127 0.0232,0 0.163526,-0.166747 0.311829,-0.37055 z m 10.722379,-7.911766 c -0.0027,-0.479212 -0.01601,-1.195724 -0.02956,-1.592248 l -0.02464,-0.720951 -0.613979,0.761011 c -0.637447,0.790098 -1.81226,2.285997 -1.863973,2.373409 -0.02346,0.03965 0.237524,0.05007 1.253726,0.05007 h 1.283351 z m 7.787807,0.761131 c -0.276991,-1.561899 -0.619434,-2.855007 -1.04561,-3.948357 -0.08749,-0.224467 -0.359842,-0.807081 -0.605216,-1.294702 -0.468787,-0.931601 -1.674303,-3.099345 -1.723592,-3.099345 -0.07849,0 -1.549913,1.706902 -2.016813,2.339579 l -0.263185,0.35663 v 2.87818 2.87818 h 2.836977 2.836976 z m 6.943207,0 c -0.01199,-0.06059 -0.06605,-0.381537 -0.120131,-0.713217 -0.323515,-1.984167 -0.662262,-3.073624 -1.425072,-4.583223 -0.44456,-0.879785 -0.73968,-1.340514 -1.369911,-2.138652 -1.188899,-1.505643 -2.374025,-2.556275 -4.276065,-3.790794 l -0.328604,-0.213281 -0.646946,0.656601 c -0.35582,0.36113 -0.646945,0.670193 -0.646945,0.686806 0,0.01661 0.220401,0.398889 0.489779,0.8495 1.832113,3.064723 2.516124,4.582396 3.070433,6.812642 0.213275,0.858104 0.354805,1.571733 0.423062,2.133172 l 0.04992,0.410611 h 2.401143 2.401141 z M 51.125391,48.730841 c 0.182266,-0.214819 0.798503,-0.985464 1.369417,-1.712546 1.326561,-1.68943 2.16617,-2.719654 3.042838,-3.73365 l 0.699693,-0.809301 -0.04656,-1.942536 c -0.02561,-1.068395 -0.05997,-1.934116 -0.07635,-1.923825 -0.04097,0.02573 -1.272516,1.749269 -1.75812,2.460465 -1.326775,1.943142 -2.29707,3.740667 -2.827452,5.237999 -0.25032,0.706686 -0.808934,2.600835 -0.80921,2.743871 -1.67e-4,0.12964 0.07279,0.07195 0.405749,-0.320477 z m 7.556174,-8.988618 c 0.140913,-0.17659 0.279651,-0.354447 0.308307,-0.395238 0.04619,-0.06576 0.01558,-0.13129 -0.270053,-0.577937 -0.177184,-0.277073 -0.329224,-0.50377 -0.337868,-0.50377 -0.0086,0 -0.01571,0.405604 -0.01571,0.901341 0,0.495737 0.0133,0.900291 0.02956,0.899009 0.01626,-0.0013 0.144855,-0.146815 0.285766,-0.323405 z m 2.037246,-2.12488 c 0.05017,-0.04791 0.09122,-0.129028 0.09122,-0.180268 0,-0.07657 -0.02082,-0.09317 -0.116861,-0.09317 -0.138252,0 -0.212436,0.109755 -0.175441,0.259566 0.03058,0.123842 0.08217,0.1274 0.201077,0.01387 z m -0.342352,-0.354502 c 0,-0.03987 -0.02217,-0.08035 -0.04927,-0.08996 -0.07981,-0.02829 -0.147809,0.01396 -0.147809,0.09186 0,0.03987 0.02217,0.08036 0.04927,0.08996 0.07981,0.02829 0.147811,-0.01396 0.147811,-0.09186 z"
         id="path7789" />
      <path
         style="opacity:0.970588;fill:#ffffff;fill-opacity:1;stroke:#ffffff;stroke-width:0.0801989;stroke-linejoin:round;stroke-opacity:1;paint-order:stroke fill markers"
         d="m 58.189615,64.073657 c -0.101504,-0.406577 -0.125731,-3.547359 -0.0731,-9.477489 l 0.02619,-2.950993 h 3.044051 c 2.656031,0 3.046916,0.0076 3.066518,0.0595 0.06452,0.170874 0.06888,0.79352 0.0088,1.256815 -0.07048,0.543579 -0.378909,1.822585 -0.576145,2.389198 -0.347303,0.997712 -1.045871,2.501811 -1.714793,3.692156 -0.835957,1.487577 -2.601683,4.010843 -3.388513,4.842266 -0.155479,0.164293 -0.301325,0.298713 -0.324101,0.298713 -0.02278,0 -0.05379,-0.04957 -0.06891,-0.110164 z m 0.815275,-1.341995 c 1.539224,-2.156056 2.697199,-3.968021 3.238609,-5.067687 0.79041,-1.605411 1.230548,-2.880291 1.602803,-4.642592 0.107721,-0.509968 0.195857,-0.938106 0.195857,-0.951414 0,-0.01331 -1.277083,-0.0242 -2.83796,-0.0242 h -2.837963 v 5.768578 c 0,3.172719 0.007,5.768578 0.01546,5.768578 0.0085,0 0.28894,-0.38307 0.623189,-0.851265 z"
         id="path7791" />
      <path
         style="opacity:0.970588;fill:#ffffff;fill-opacity:1;stroke:#ffffff;stroke-width:0.0801989;stroke-linejoin:round;stroke-opacity:1;paint-order:stroke fill markers"
         d="m 59.816631,65.157945 c -0.246342,-0.06548 -0.02199,-0.498276 0.972197,-1.875464 2.11746,-2.933182 3.423565,-5.315661 4.205559,-7.671409 0.304013,-0.915832 0.495618,-1.740209 0.665723,-2.864258 0.06335,-0.418623 0.138705,-0.851267 0.167454,-0.96143 l 0.05227,-0.200298 0.234084,-0.01328 c 0.431533,-0.02449 5.080589,0.07568 5.114557,0.110198 0.01845,0.01875 0.03581,0.28403 0.03857,0.589513 0.0038,0.419733 -0.01709,0.682646 -0.08552,1.076197 -0.269222,1.548408 -0.839358,3.234513 -1.537981,4.548386 -0.607103,1.141759 -0.920454,1.594806 -1.855629,2.682898 -1.054342,1.226745 -2.364417,2.281624 -4.001968,3.222405 -0.743492,0.427139 -1.842276,0.853136 -3.040182,1.178672 -0.620436,0.168606 -0.820171,0.206843 -0.929142,0.177876 z m 0.552715,-0.523863 c 0.0095,-0.06742 -0.0071,-0.08973 -0.06665,-0.08973 -0.09434,0 -0.139123,0.0606 -0.10722,0.145088 0.03372,0.0893 0.159173,0.04935 0.173872,-0.05536 z m 0.698493,-0.166403 c 1.562221,-0.516415 3.095981,-1.28675 4.084205,-2.051302 1.488433,-1.151543 2.639287,-2.38278 3.627581,-3.880955 0.384249,-0.582491 0.889558,-1.587955 1.207949,-2.403576 0.394287,-1.010044 0.74203,-2.353968 0.891436,-3.445122 0.03469,-0.253377 0.07181,-0.501245 0.08249,-0.550819 l 0.01941,-0.09013 h -2.399538 -2.399537 l -0.04858,0.37055 c -0.244537,1.865216 -0.848578,3.934745 -1.646245,5.640275 -0.246093,0.52618 -0.818544,1.603845 -1.164364,2.191961 -0.334272,0.568477 -1.319108,2.056354 -1.888855,2.853655 -0.291273,0.407606 -0.624195,0.883722 -0.739825,1.058032 -0.197648,0.297951 -0.205918,0.320142 -0.138085,0.370551 0.09692,0.07203 0.106835,0.07081 0.511969,-0.06312 z"
         id="path7793" />
    </g>
    <path
       style="fill:#ffffff;fill-opacity:1;stroke:#ffffff;stroke-width:5.16759;stroke-opacity:1"
       d="m 215.94708,736.33978 c -6.67483,-2.02541 -9.23945,-4.1569 -12.09229,-10.0501 -1.57724,-3.25814 -2.85861,-8.03687 -2.8475,-10.61942 0.053,-12.31399 9.49693,-37.7505 23.31755,-62.80406 8.63275,-15.64916 38.58656,-60.47941 51.09498,-76.47106 C 319.2035,520.41891 384.79,452.58027 439.57379,406.60438 515.7145,342.70522 580.0048,309.0193 601.17789,321.92934 c 7.05564,4.30211 9.04072,8.47902 8.31806,17.50246 -0.57149,7.13568 -8.74436,31.39239 -10.11523,30.02152 -0.31664,-0.31665 0.66275,-5.74196 2.17644,-12.05625 3.51393,-14.65809 3.52837,-22.52748 0.0518,-28.22945 -2.24267,-3.67825 -3.55046,-4.44359 -7.59299,-4.44359 -18.60294,0 -46.15621,14.889 -92.91962,50.21112 -39.78015,30.04739 -86.47113,73.13525 -137.95791,127.31174 -35.86107,37.73449 -52.56752,56.63232 -77.57217,87.74734 -49.54861,61.65674 -75.00839,105.67005 -75.00839,129.66994 0,12.56559 11.28656,14.79081 34.14978,6.73281 6.40937,-2.25893 14.02027,-5.31162 16.91312,-6.78376 8.82927,-4.4931 7.13999,-1.68665 -2.08015,3.45584 -11.8345,6.60063 -20.79031,10.2956 -30.51287,12.58894 -9.18334,2.16615 -8.33469,2.12192 -13.08069,0.68178 z"
       id="path3"
       transform="scale(0.26458333)" />
    <path
       style="fill:#ffffff;fill-opacity:1;stroke:#ffffff;stroke-width:5.16759;stroke-opacity:1"
       d="m 237.06024,590.99607 c -14.97522,-27.0701 -18.96234,-42.91122 -17.92928,-71.23424 0.75304,-20.64581 2.27275,-28.04938 9.52898,-46.42235 18.3772,-46.5315 69.13774,-85.44888 127.84768,-98.01898 12.54274,-2.68546 16.91359,-2.90485 48.42664,-2.43071 28.36244,0.42674 36.44014,0.99018 44.57607,3.10934 5.4651,1.42348 9.72565,3.2357 9.4679,4.02715 -0.25776,0.79145 -3.8063,3.80123 -7.88566,6.68841 -7.16432,5.07058 -7.70286,5.2212 -15.80757,4.42138 -9.89889,-0.9769 -11.2357,0.4485 -7.42696,7.91913 2.44852,4.80261 2.44324,4.85517 -0.79183,7.89437 l -3.25677,3.05957 -5.29701,-5.17238 c -8.34387,-8.14758 -10.30095,-6.75194 -10.77974,7.6873 l -0.39415,11.88638 -5.75852,4.93598 -5.75852,4.93598 -0.96816,-12.73597 c -1.2858,-16.91448 -2.22582,-21.62316 -4.31672,-21.62316 -3.13912,0 -12.90767,9.47717 -26.52082,25.72975 -23.41984,27.96064 -36.28608,50.06109 -42.72932,73.39654 -3.54331,12.83275 -4.24153,14.32797 -10.69436,22.90158 l -4.888,6.49449 H 274.0219 c -37.31068,0 -35.8454,-0.56755 -33.4878,12.97079 1.76342,10.12635 8.34472,29.59228 13.34758,39.47904 l 3.36332,6.64666 -5.39352,7.651 c -2.96643,4.20805 -5.93401,7.83043 -6.59462,8.04972 -0.66062,0.2193 -4.34909,-5.29175 -8.19662,-12.24677 z m 70.87399,-82.87948 c 6.18536,-31.86617 20.49727,-57.35103 53.08139,-94.52073 21.58674,-24.62464 20.60354,-26.25214 -10.9973,-18.20389 -41.08588,10.46394 -79.82267,39.96736 -97.00438,73.88223 -7.79554,15.38759 -15.96813,45.09733 -13.17402,47.89143 1.70896,1.70896 15.41475,2.66558 41.13182,2.87085 l 24.61066,0.19643 z"
       id="path5"
       transform="scale(0.26458333)" />
    <path
       style="fill:#fefefe;fill-opacity:1;stroke:#ffffff;stroke-width:5.16759;stroke-opacity:1"
       d="m 383.51617,676.57235 c -27.89878,-3.36536 -54.05873,-10.71677 -74.55374,-20.95093 -12.07232,-6.02832 -30.25104,-17.72363 -37.92007,-24.39596 l -4.46034,-3.88065 4.29346,-6.03912 c 2.36141,-3.32151 4.78079,-6.5744 5.37641,-7.22863 0.59562,-0.65423 4.66995,1.54715 9.05406,4.89198 22.33842,17.04296 38.46228,25.49461 61.97785,32.48701 16.91139,5.02864 27.68588,6.00633 28.39386,2.5765 0.25565,-1.23847 -2.18297,-5.35983 -5.41916,-9.15857 -3.23618,-3.79872 -10.65141,-12.49818 -16.4783,-19.33212 -11.36285,-13.32671 -23.50295,-30.79572 -31.37033,-45.14039 -7.06714,-12.88561 -7.24824,-14.0276 -3.02123,-19.05111 l 3.63726,-4.32265 6.4959,13.55647 c 10.23043,21.35011 25.65737,42.82422 47.1277,65.60119 14.91275,15.82028 16.05886,15.48263 17.63916,-5.19652 0.66092,-8.64858 0.74387,-35.25886 0.18432,-59.13395 l -1.01735,-43.40927 -11.80603,-0.17871 c -6.49331,-0.0983 -16.32225,-0.55974 -21.84209,-1.02544 l -10.03606,-0.84674 3.40363,-3.18507 c 3.11076,-2.911 4.98792,-3.25149 21.81561,-3.95704 l 18.41198,-0.77197 0.8676,-10.26365 c 0.47718,-5.64502 0.8676,-14.34959 0.8676,-19.34351 0,-8.95522 0.0845,-9.16273 6.15266,-15.11824 l 6.15267,-6.03838 v 26.47037 26.47038 l 14.56891,-0.89141 c 8.0129,-0.49027 24.6251,-0.89141 36.91599,-0.89141 h 22.34709 v -8.3043 c 0,-15.50305 -9.06296,-36.84158 -26.78547,-63.06575 l -10.33146,-15.28757 3.1768,-2.44199 c 1.74723,-1.34309 3.75401,-2.26415 4.45951,-2.04679 1.99645,0.61508 18.99572,24.83165 25.01479,35.6352 7.27786,13.06291 12.31435,26.05073 15.33097,39.53463 3.8401,17.16475 1.1226,15.51752 27.15686,16.46131 12.55156,0.45502 26.82026,0.37828 31.70821,-0.17053 l 8.88718,-0.99784 0.42346,-5.87283 c 1.05069,-14.57185 -11.11002,-45.43116 -24.47382,-62.10528 -11.70263,-14.60148 -36.32542,-34.81784 -52.42246,-43.04107 -7.5793,-3.87192 -8.01747,-2.50618 3.79646,-11.83321 l 4.94096,-3.90085 9.25704,5.05636 c 10.35838,5.65792 24.76668,16.15427 35.5965,25.93183 15.56922,14.05644 32.93518,40.99162 39.86163,61.82666 3.55839,10.70377 6.17165,38.62653 5.03168,53.76365 -2.21745,29.4442 -19.64092,63.10633 -45.03196,87.0017 -30.59818,28.79576 -68.8011,45.48723 -115.43811,50.43675 -17.85273,1.89469 -28.80005,2.21731 -37.91779,1.11746 z m 60.22326,-22.2614 c 30.99728,-7.43202 57.13904,-21.44905 79.04779,-42.38488 20.85995,-19.93358 35.61114,-48.68218 37.39759,-72.88419 l 0.78215,-10.59625 h -30.16325 c -16.58979,0 -31.09663,-0.35817 -32.23743,-0.79594 -2.20037,-0.84436 -2.83342,0.88364 -6.83025,18.64415 -6.07358,26.98889 -21.1342,52.77516 -51.21907,87.69553 -12.89664,14.9695 -15.29726,18.53588 -14.31707,21.26953 0.84062,2.34439 4.67148,2.13734 17.53954,-0.94795 z m -19.72847,-17.51004 c 35.00989,-36.75089 57.26423,-75.72837 57.26423,-100.29576 v -8.05952 h -36.916 -36.91599 v 57.31305 c 0,31.52218 0.37345,58.28628 0.82991,59.47577 1.62772,4.24178 5.78548,2.01374 15.73785,-8.43354 z"
       id="path6"
       transform="scale(0.26458333)" />
    <path
       style="fill:#f9f9f9;stroke:none;stroke-width:5.16759"
       d="m 570.14703,416.75232 c 0,-4.73608 2.72436,-34.34078 3.52814,-38.33911 0.60005,-2.98492 0.75079,-2.94731 6.85099,1.70907 6.71958,5.12918 8.67199,5.672 11.22356,3.12043 1.27611,-1.2761 1.64071,-0.83897 1.64071,1.96712 0,3.76322 0.45947,3.93021 15.03985,5.46618 2.83148,0.29828 0.3323,2.53707 -14.56122,13.0441 -9.88866,6.97621 -18.73154,13.59032 -19.65086,14.69803 -2.53379,3.05303 -4.07117,2.42397 -4.07117,-1.66582 z"
       id="path7"
       transform="scale(0.26458333)" />
    <path
       style="fill:#ffffff;fill-opacity:1;stroke:#ffffff;stroke-width:0.645949;stroke-opacity:1"
       d="m 569.00358,421.7781 c 0.0492,-0.17628 0.13903,-1.05112 0.19954,-1.94412 0.36907,-5.44661 4.11035,-46.63388 4.24858,-46.77211 0.0711,-0.0711 2.04435,1.66037 4.85695,4.26164 4.55736,4.21493 7.17813,6.12111 9.25263,6.72977 1.91624,0.56223 2.78634,0.065 4.32019,-2.46864 1.03124,-1.70344 3.01726,-5.83949 4.16056,-8.66473 0.45647,-1.12799 0.84232,-2.07112 0.85744,-2.09584 0.0151,-0.0247 0.29941,0.2115 0.63175,0.52494 0.33234,0.31343 0.84665,0.6413 1.14291,0.72858 l 0.53865,0.15869 -0.70821,1.45271 c -1.98775,4.07738 -4.4157,10.03069 -4.69244,11.50583 -0.0665,0.35449 -0.1626,0.60285 -0.21355,0.55189 -0.0509,-0.051 -0.14517,-0.75403 -0.20938,-1.56241 -0.15986,-2.01268 -0.44924,-2.15115 -1.84622,-0.88342 -0.86093,0.78126 -1.95228,1.31713 -2.6933,1.32243 -1.61625,0.0116 -3.43899,-1.01514 -8.55402,-4.81831 -3.60832,-2.68287 -4.96818,-3.5524 -5.55565,-3.5524 -0.44657,0 -0.84114,0.69416 -1.10203,1.93875 -0.78614,3.75038 -3.21904,29.74252 -3.4368,36.71754 -0.11601,3.71592 0.0225,4.69173 0.74699,5.26159 l 0.41126,0.3235 -0.99074,0.66568 c -1.46731,0.98589 -1.46782,0.98612 -1.36511,0.61844 z"
       id="path8"
       transform="scale(0.26458333)" />
    <path
       style="fill:#ffffff;fill-opacity:1;stroke:#ffffff;stroke-width:0.645949;stroke-opacity:1"
       d="m 575.78697,417.20565 c 0,-0.25288 9.22147,-7.05043 19.91071,-14.67704 4.04196,-2.88388 8.27014,-5.95729 9.39596,-6.8298 3.88287,-3.00923 5.05326,-4.45734 3.97754,-4.92139 -0.21149,-0.0912 -2.15343,-0.36063 -4.31541,-0.59865 -4.37183,-0.48131 -7.84388,-1.00428 -8.47317,-1.27626 -0.45128,-0.19503 -0.37689,-0.18952 2.57687,0.1911 0.79899,0.10296 4.80833,0.23605 8.90964,0.29576 l 7.45694,0.10855 -12.15689,8.62795 c -16.74058,11.88106 -27.05148,19.1445 -27.17681,19.1445 -0.058,0 -0.10538,-0.0291 -0.10538,-0.0647 z"
       id="path9"
       transform="scale(0.26458333)" />
    <path
       style="fill:#ffffff;fill-opacity:1;stroke:#ffffff;stroke-width:0.114189;stroke-opacity:1"
       d="m 595.47722,388.77261 c -0.47127,-0.16469 -1.01919,-0.46563 -1.28912,-0.70804 -0.12649,-0.11359 -0.11171,-0.11024 0.18016,0.0408 0.25414,0.1315 0.80198,0.31836 1.1643,0.39713 0.13293,0.0289 0.24571,0.0559 0.25061,0.06 0.0162,0.0136 -0.061,0.28678 -0.0805,0.28449 -0.0105,-0.001 -0.11195,-0.0347 -0.22547,-0.0744 z"
       id="path12"
       transform="scale(0.26458333)" />
    <path
       style="fill:#ffffff;fill-opacity:1;stroke:#ffffff;stroke-width:0.228378;stroke-opacity:1"
       d="m 270.03881,717.55494 c 0,-0.73217 -0.28301,-1.41329 -0.81194,-1.95413 l -0.36635,-0.37459 1.90339,-0.96983 c 7.01489,-3.57431 16.59508,-8.95178 23.76884,-13.34173 0.72654,-0.4446 1.33234,-0.79703 1.34621,-0.78316 0.0139,0.0139 -0.48541,0.41858 -1.10951,0.89935 -5.43154,4.18415 -12.85878,9.35294 -19.48686,13.56137 -1.92786,1.22407 -5.05108,3.16418 -5.16272,3.20702 -0.0605,0.0232 -0.0811,-0.0388 -0.0811,-0.2443 z"
       id="path13"
       transform="scale(0.26458333)" />
    <path
       style="fill:#ffffff;fill-opacity:1;stroke:#ffffff;stroke-width:0.0403718;stroke-opacity:1"
       d="m 461.56357,379.70013 c -0.0215,-0.31695 -0.11822,-0.66841 -0.27817,-1.01107 -0.0272,-0.0582 -0.0465,-0.10865 -0.043,-0.11215 0.009,-0.009 0.39905,0.19126 0.57048,0.29368 0.1489,0.089 0.34759,0.22554 0.37968,0.261 0.0163,0.018 0.0125,0.0247 -0.0606,0.10826 -0.0898,0.10263 -0.54309,0.56442 -0.55401,0.56442 -0.004,0 -0.0105,-0.0469 -0.0144,-0.10414 z"
       id="path14"
       transform="scale(0.26458333)" />
    <path
       style="fill:#ffffff;fill-opacity:1;stroke:#ffffff;stroke-width:0.322975;stroke-opacity:1"
       d="m 571.19478,419.90185 c -0.36895,-0.34954 -0.44937,-0.48495 -0.54782,-0.9224 -0.15647,-0.69527 -0.13216,-4.30989 0.0474,-7.04993 0.60436,-9.22145 2.20328,-26.19438 3.00414,-31.8897 0.35149,-2.49961 0.65399,-3.40268 1.13982,-3.40268 0.44232,0 1.8735,0.95675 6.50313,4.34738 3.13193,2.29375 4.93542,3.38802 6.21805,3.77281 0.47934,0.14381 0.78272,0.1794 1.33116,0.15617 0.63292,-0.0268 0.78877,-0.0694 1.43006,-0.39069 0.4092,-0.20503 1.05155,-0.63819 1.48881,-1.00396 0.42299,-0.35384 0.8181,-0.6434 0.87801,-0.64346 0.17412,-2e-4 0.24586,0.30285 0.39348,1.66208 0.0763,0.70272 0.17715,1.31606 0.22408,1.36299 0.0469,0.0469 0.0862,0.22183 0.0874,0.38868 0.003,0.40957 0.14018,0.97743 0.245,1.01237 0.0468,0.0156 0.0671,0.0755 0.045,0.13305 -0.0689,0.17943 0.52637,0.78122 1.04735,1.0589 0.27382,0.14595 0.51708,0.26574 0.54058,0.26622 0.10659,0.002 0.40821,0.14784 0.6612,0.31938 0.54709,0.37097 2.81364,0.74449 8.73871,1.44013 3.09312,0.36315 4.28708,0.53985 4.39813,0.6509 0.14724,0.14723 -0.29431,0.83507 -0.97845,1.52423 -1.60531,1.61708 -3.5787,3.09953 -15.48044,11.62924 -7.03049,5.0386 -14.15531,10.27111 -16.16366,11.87069 -0.50708,0.40387 -0.94286,0.81122 -0.9684,0.90522 -0.0255,0.094 -0.25895,0.34395 -0.51868,0.55545 -0.25973,0.21149 -0.72341,0.67294 -1.0304,1.02544 -0.86416,0.99227 -1.45545,1.44922 -2.03722,1.57437 -0.23308,0.0502 -0.31464,0.009 -0.69642,-0.35288 z"
       id="path15"
       transform="scale(0.26458333)" />
    <path
       style="fill:#ffffff;fill-opacity:1;stroke:#ffffff;stroke-width:0.0570944;stroke-opacity:1"
       d="m 574.39889,418.42344 c 0.19083,-0.20155 0.47116,-0.46742 0.67984,-0.64477 0.0872,-0.0741 0.21679,-0.19358 0.28789,-0.26542 l 0.12927,-0.13063 0.0571,0.0657 c 0.0314,0.0361 0.0813,0.0781 0.11084,0.0932 l 0.0537,0.0276 -0.0966,0.0683 c -0.3966,0.28052 -1.35892,0.94844 -1.36648,0.94844 -0.005,0 0.0598,-0.0731 0.1444,-0.16239 z"
       id="path16"
       transform="scale(0.26458333)" />
    <path
       style="fill:#ffffff;fill-opacity:1;stroke:#ffffff;stroke-width:0.0807436;stroke-opacity:1"
       d="m 593.57584,386.43227 c -0.007,-0.0294 -0.016,-0.11832 -0.0192,-0.19765 -0.006,-0.13712 -0.004,-0.14425 0.0421,-0.14421 0.0556,6e-5 0.0562,0.008 0.0176,0.23505 -0.0204,0.1199 -0.0305,0.14678 -0.0405,0.10681 z"
       id="path17"
       transform="scale(0.26458333)" />
    <path
       style="fill:#ffffff;fill-opacity:1;stroke:#ffffff;stroke-width:0.0147638;stroke-opacity:1"
       d="m 295.99465,700.11479 c -0.012,-0.0405 -0.0334,-0.0712 -0.0587,-0.0843 l -0.0117,-0.006 0.0174,-0.0103 c 0.01,-0.006 0.19387,-0.12055 0.4096,-0.25537 0.21574,-0.13482 0.39292,-0.24445 0.39375,-0.24363 0.002,0.002 -0.27508,0.22595 -0.54771,0.44366 -0.10313,0.0824 -0.19054,0.15235 -0.19426,0.15556 -0.006,0.005 -0.007,0.005 -0.008,4.1e-4 z"
       id="path18"
       transform="scale(0.26458333)" />
  </g>
</svg>
