<?xml version="1.0" encoding="UTF-8" standalone="no"?>
<!-- Created with Inkscape (http://www.inkscape.org/) -->

<svg
   width="480"
   height="480"
   viewBox="0 0 127 127"
   version="1.1"
   id="svg5"
   xml:space="preserve"
   inkscape:version="1.3.2 (091e20e, 2023-11-25, custom)"
   sodipodi:docname="CompasPath.svg"
   xmlns:inkscape="http://www.inkscape.org/namespaces/inkscape"
   xmlns:sodipodi="http://sodipodi.sourceforge.net/DTD/sodipodi-0.dtd"
   xmlns:xlink="http://www.w3.org/1999/xlink"
   xmlns="http://www.w3.org/2000/svg"
   xmlns:svg="http://www.w3.org/2000/svg"><sodipodi:namedview
     id="namedview7"
     pagecolor="#ffffff"
     bordercolor="#000000"
     borderopacity="0.25"
     inkscape:showpageshadow="2"
     inkscape:pageopacity="0.0"
     inkscape:pagecheckerboard="0"
     inkscape:deskcolor="#d1d1d1"
     inkscape:document-units="mm"
     showgrid="false"
     inkscape:zoom="1.1991353"
     inkscape:cx="315.64412"
     inkscape:cy="235.58643"
     inkscape:window-width="1920"
     inkscape:window-height="1017"
     inkscape:window-x="1072"
     inkscape:window-y="445"
     inkscape:window-maximized="1"
     inkscape:current-layer="layer1"
     showguides="true"><sodipodi:guide
       position="-3.3117831e-06,127"
       orientation="480,0"
       id="guide4675"
       inkscape:locked="false" /><sodipodi:guide
       position="-3.3117831e-06,5.0291416e-07"
       orientation="0,480.00003"
       id="guide4677"
       inkscape:locked="false" /><sodipodi:guide
       position="127,5.0291416e-07"
       orientation="-480,0"
       id="guide4679"
       inkscape:locked="false" /><sodipodi:guide
       position="127,127"
       orientation="0,-480.00003"
       id="guide4681"
       inkscape:locked="false" /><sodipodi:guide
       position="20.225806,63.500001"
       orientation="0,1"
       id="guide22728"
       inkscape:locked="false"
       inkscape:label=""
       inkscape:color="rgb(0,134,229)" /><sodipodi:guide
       position="63.329515,58.338458"
       orientation="-1,0"
       id="guide22730"
       inkscape:locked="false"
       inkscape:label=""
       inkscape:color="rgb(0,134,229)" /><sodipodi:guide
       position="0,95.25"
       orientation="0,1"
       id="guide22732"
       inkscape:locked="false"
       inkscape:label=""
       inkscape:color="rgb(0,134,229)" /><sodipodi:guide
       position="0,31.75"
       orientation="0,1"
       id="guide22734"
       inkscape:locked="false"
       inkscape:label=""
       inkscape:color="rgb(0,134,229)" /><sodipodi:guide
       position="31.75,127"
       orientation="-1,0"
       id="guide22736"
       inkscape:locked="false"
       inkscape:label=""
       inkscape:color="rgb(0,134,229)" /><sodipodi:guide
       position="260,127"
       orientation="-1,0"
       id="guide22738"
       inkscape:locked="false"
       inkscape:label=""
       inkscape:color="rgb(0,134,229)" /><sodipodi:guide
       position="95.25,127"
       orientation="-1,0"
       id="guide22740"
       inkscape:locked="false"
       inkscape:label=""
       inkscape:color="rgb(0,134,229)" /><inkscape:grid
       type="xygrid"
       id="grid1164"
       originx="0"
       originy="0"
       spacingy="1"
       spacingx="1"
       units="mm"
       visible="false" /></sodipodi:namedview><defs
     id="defs2"><inkscape:path-effect
       effect="fillet_chamfer"
       id="path-effect6602"
       is_visible="true"
       lpeversion="1"
       nodesatellites_param="F,1,0,1,0,0,0,1 @ F,1,0,1,0,0,0,1 @ F,1,0,1,0,0,0,1"
       unit="px"
       method="auto"
       mode="F"
       radius="0"
       chamfer_steps="1"
       flexible="true"
       use_knot_distance="true"
       apply_no_radius="true"
       apply_with_radius="true"
       only_selected="false"
       hide_knots="false" /><linearGradient
       inkscape:collect="always"
       id="linearGradient13540"><stop
         style="stop-color:#ff0000;stop-opacity:1;"
         offset="0"
         id="stop13536" /><stop
         style="stop-color:#ff0000;stop-opacity:0;"
         offset="1"
         id="stop13538" /></linearGradient><rect
       x="216.69042"
       y="66.856344"
       width="58.761545"
       height="48.976172"
       id="rect13441" /><inkscape:path-effect
       effect="copy_rotate"
       starting_point="85.280193,63.5"
       origin="63.5,63.5"
       id="path-effect13330"
       is_visible="true"
       lpeversion="1.2"
       lpesatellites=""
       method="normal"
       num_copies="72"
       starting_angle="0"
       rotation_angle="10"
       gap="-0.01"
       copies_to_360="true"
       mirror_copies="false"
       split_items="false"
       link_styles="false" /><inkscape:path-effect
       effect="copy_rotate"
       starting_point="85.280193,63.5"
       origin="63.5,63.5"
       id="path-effect13324"
       is_visible="true"
       lpeversion="1.2"
       lpesatellites=""
       method="normal"
       num_copies="36"
       starting_angle="0"
       rotation_angle="60"
       gap="-0.01"
       copies_to_360="true"
       mirror_copies="false"
       split_items="false"
       link_styles="false" /><inkscape:path-effect
       effect="copy_rotate"
       starting_point="85.280193,63.5"
       origin="63.5,63.5"
       id="path-effect13318"
       is_visible="true"
       lpeversion="1.2"
       lpesatellites=""
       method="normal"
       num_copies="12"
       starting_angle="0"
       rotation_angle="60"
       gap="-0.01"
       copies_to_360="true"
       mirror_copies="false"
       split_items="false"
       link_styles="false" /><inkscape:path-effect
       effect="copy_rotate"
       starting_point="0,0"
       origin="0,0"
       id="path-effect13256"
       is_visible="true"
       lpeversion="1.2"
       lpesatellites=""
       method="normal"
       num_copies="12"
       starting_angle="0"
       rotation_angle="30"
       gap="0"
       copies_to_360="true"
       mirror_copies="false"
       split_items="false"
       link_styles="false" /><linearGradient
       id="linearGradient3335"
       inkscape:swatch="solid"><stop
         style="stop-color:#4f6bd0;stop-opacity:1;"
         offset="0"
         id="stop3333" /></linearGradient><inkscape:path-effect
       effect="bspline"
       id="path-effect1151"
       is_visible="true"
       lpeversion="1"
       weight="33.333333"
       steps="2"
       helper_size="0"
       apply_no_weight="true"
       apply_with_weight="true"
       only_selected="false" /><inkscape:path-effect
       effect="bspline"
       id="path-effect1147"
       is_visible="true"
       lpeversion="1"
       weight="33.333333"
       steps="2"
       helper_size="0"
       apply_no_weight="true"
       apply_with_weight="true"
       only_selected="false" /><inkscape:path-effect
       effect="bspline"
       id="path-effect1151-8"
       is_visible="true"
       lpeversion="1"
       weight="33.333333"
       steps="2"
       helper_size="0"
       apply_no_weight="true"
       apply_with_weight="true"
       only_selected="false" /><radialGradient
       inkscape:collect="always"
       xlink:href="#linearGradient13540"
       id="radialGradient13542"
       cx="63.5"
       cy="63.5"
       fx="63.5"
       fy="63.5"
       r="19.580921"
       gradientUnits="userSpaceOnUse" /></defs><g
     inkscape:label="Layer 1"
     inkscape:groupmode="layer"
     id="layer1"
     style="display:inline"><ellipse
       style="display:inline;fill:none;fill-opacity:1;fill-rule:evenodd;stroke:#000000;stroke-width:1;stroke-linejoin:round;stroke-dasharray:none;stroke-opacity:1;paint-order:stroke fill markers"
       id="ellipse1004"
       cx="63.5"
       cy="63.5"
       rx="63.44965"
       ry="63.449646" /><ellipse
       style="display:inline;fill:#000000;fill-opacity:1;fill-rule:evenodd;stroke:none;stroke-width:0.1;stroke-linejoin:round;stroke-dasharray:none;stroke-opacity:1;paint-order:stroke fill markers"
       id="path3558"
       cx="63.5"
       cy="63.5"
       rx="63.44965"
       ry="63.449646" /><circle
       style="display:none;fill:url(#radialGradient13542);fill-opacity:1;fill-rule:evenodd;stroke:none;stroke-width:0.0308606;stroke-linejoin:round;stroke-dasharray:none;stroke-opacity:1;paint-order:stroke fill markers"
       id="ellipse11596"
       cy="63.5"
       cx="63.5"
       r="19.580921" /><path
       style="opacity:0.970588;fill:#ff0000;fill-opacity:1;stroke:#ffffff;stroke-width:2;stroke-linejoin:round;stroke-dasharray:none;stroke-opacity:1;paint-order:stroke fill markers"
       d="M -3.3117829e-6,63.499999 15.583992,63.499998 M 8.5073835,95.250001 22.003519,87.458002 m 9.746478,31.034618 7.791997,-13.49614 M 63.499999,127 l -1e-6,-15.58399 m 31.750003,7.07661 -7.791999,-13.49614 M 118.49262,95.250003 104.99648,87.458006 M 127,63.500001 l -15.58399,1e-6 m 7.07661,-31.750003 -13.49614,7.791999 M 95.250003,8.5073845 87.458006,22.003521 M 63.500001,-3.3117829e-6 63.500002,15.583992 M 31.749999,8.5073835 39.541998,22.003519 M 8.5073845,31.749997 22.003521,39.541994"
       id="path12472"
       inkscape:path-effect="#path-effect13318"
       inkscape:original-d="M -3.3117829e-6,63.499999 15.583992,63.499998"
       class="UnoptimicedTransforms"
       sodipodi:nodetypes="cc" /><path
       style="opacity:0.970588;fill:#ff0000;fill-opacity:1;stroke:#ffffff;stroke-width:2;stroke-linejoin:round;stroke-dasharray:none;stroke-opacity:1;paint-order:stroke fill markers"
       d="M -3.3117829e-6,63.499999 H 10.112901 M 0.96470425,74.526659 10.923971,72.770571 M 3.8295151,85.218279 13.332537,81.759462 M 8.5073835,95.250001 17.265416,90.193549 m -2.409241,14.123461 7.746934,-6.500445 m 0.07988,14.327255 6.500449,-7.74693 m 2.566564,14.09573 5.056453,-8.75804 m 4.975269,13.4359 3.458817,-9.50302 m 7.232803,12.36784 1.756088,-9.95927 M 63.499999,127 v -10.1129 m 11.02666,9.1482 -1.756088,-9.95927 m 12.447708,7.09445 -3.458817,-9.50302 m 13.490539,4.82516 -5.056452,-8.75804 m 14.123461,2.40925 -6.500445,-7.74694 m 14.327255,-0.0799 -7.74693,-6.500453 m 14.09573,-2.566564 -8.75804,-5.056453 m 13.4359,-4.975269 -9.50302,-3.458817 m 12.36784,-7.232803 -9.95927,-1.756088 M 127,63.500001 h -10.1129 m 9.1482,-11.02666 -9.95927,1.756088 m 7.09445,-12.447708 -9.50302,3.458817 m 4.82516,-13.490539 -8.75804,5.056452 m 2.40925,-14.123466 -7.74694,6.50045 m -0.0799,-14.327259 -6.500453,7.746934 M 95.250003,8.5073845 90.19355,17.265417 M 85.218281,3.8295158 81.759464,13.332537 M 74.526661,0.9647046 72.770573,10.923971 M 63.500001,-3.3117829e-6 V 10.112901 M 52.473341,0.96470425 54.229429,10.923971 M 41.781721,3.8295151 45.240538,13.332537 M 31.749999,8.5073835 36.806451,17.265416 m -14.123466,-2.409241 6.50045,7.746934 m -14.327259,0.07988 7.746934,6.500449 M 8.5073845,31.749997 17.265417,36.80645 m -13.4359012,4.975269 9.5030212,3.458817 m -12.3678324,7.232803 9.9592664,1.756088"
       id="path13320"
       inkscape:path-effect="#path-effect13324"
       inkscape:original-d="M -3.3117829e-6,63.499999 H 10.112901"
       class="UnoptimicedTransforms"
       sodipodi:nodetypes="cc" /><path
       style="opacity:0.970588;fill:#ff0000;fill-opacity:1;stroke:#ffffff;stroke-width:2;stroke-linejoin:round;stroke-dasharray:none;stroke-opacity:1;paint-order:stroke fill markers"
       d="M -3.3117829e-6,63.499999 H 5.0564488 M 0.24163328,69.034389 5.2788441,68.59369 M 0.96470425,74.526659 5.9443375,73.648615 M 2.1637066,79.935009 7.0478643,78.626303 M 3.8295151,85.218279 8.5810259,83.488871 M 5.9494521,90.33626 10.532154,88.199311 m -2.0247705,7.05069 4.3790155,-2.528226 m -1.402557,7.20033 4.142003,-2.900262 m -0.76967,7.295167 3.873467,-3.25022 m -0.130926,7.33449 3.575452,-3.57545 m 0.508816,7.31799 3.250225,-3.87346 m 1.144685,7.2458 2.900261,-4.14201 m 1.771842,7.11847 2.528227,-4.37902 m 2.385514,6.93695 2.136949,-4.5827 m 2.981032,6.70263 1.729408,-4.75151 m 3.553862,6.41732 1.308706,-4.88415 m 4.099644,6.08316 0.878044,-4.97964 m 4.614226,5.70271 0.440699,-5.03721 M 63.499999,127 v -5.05645 m 5.53439,4.81482 -0.440699,-5.03721 m 5.932969,4.31414 -0.878044,-4.97964 m 6.286394,3.78063 -1.308706,-4.88415 m 6.591976,3.21834 -1.729408,-4.75151 m 6.847389,2.63158 -2.136949,-4.5827 m 7.05069,2.02477 -2.528226,-4.37902 m 7.20033,1.40256 -2.900262,-4.142 m 7.295167,0.76967 -3.25022,-3.87347 m 7.33449,0.13092 -3.57545,-3.57545 m 7.31799,-0.50881 -3.87346,-3.25023 m 7.2458,-1.144684 -4.14201,-2.900261 m 7.11847,-1.771842 -4.37902,-2.528227 m 6.93695,-2.385514 -4.5827,-2.136949 m 6.70263,-2.981032 -4.75151,-1.729408 m 6.41732,-3.553862 -4.88415,-1.308706 m 6.08316,-4.099644 -4.97964,-0.878044 m 5.70271,-4.614226 -5.03721,-0.440699 M 127,63.500001 h -5.05645 m 4.81482,-5.53439 -5.03721,0.440699 m 4.31414,-5.932969 -4.97964,0.878044 m 3.78063,-6.286394 -4.88415,1.308706 m 3.21834,-6.591976 -4.75151,1.729408 m 2.63158,-6.847389 -4.5827,2.136949 m 2.02477,-7.05069 -4.37902,2.528226 m 1.40256,-7.20033 -4.142,2.900262 m 0.76967,-7.295172 -3.87347,3.250225 m 0.13092,-7.334492 -3.57545,3.575451 m -0.50881,-7.317993 -3.25023,3.873467 m -1.144684,-7.2458 -2.900261,4.142003 M 95.250003,8.5073845 92.721776,12.8864 M 90.336262,5.9494529 88.199313,10.532155 M 85.218281,3.8295158 83.488873,8.5810265 M 79.935011,2.1637071 78.626305,7.0478648 M 74.526661,0.9647046 73.648617,5.9443378 M 69.034391,0.24163346 68.593692,5.2788442 M 63.500001,-3.3117829e-6 V 5.0564488 M 57.965611,0.24163328 58.40631,5.2788441 M 52.473341,0.96470425 53.351385,5.9443375 M 47.064991,2.1637066 48.373697,7.0478643 M 41.781721,3.8295151 43.511129,8.5810259 M 36.66374,5.9494521 38.800689,10.532154 m -7.05069,-2.0247705 2.528226,4.3790155 m -7.20033,-1.402557 2.900262,4.142003 m -7.295172,-0.76967 3.250225,3.873467 m -7.334492,-0.130926 3.575451,3.575452 m -7.317993,0.508816 3.873467,3.250225 m -7.2458,1.144685 4.142003,2.900261 M 8.5073845,31.749997 12.8864,34.278224 m -6.9369471,2.385514 4.5827021,2.136949 m -6.7026392,2.981032 4.7515107,1.729408 m -6.4173194,3.553862 4.8841577,1.308706 m -6.0831602,4.099644 4.9796332,0.878044 m -5.70270434,4.614226 5.03721074,0.440699"
       id="path13326"
       inkscape:path-effect="#path-effect13330"
       inkscape:original-d="M -3.3117829e-6,63.499999 H 5.0564488"
       class="UnoptimicedTransforms"
       sodipodi:nodetypes="cc" /><g
       id="g1008"><path
         d="M 238.49615,91.161951 H 221.6675 v -4.401859 h 5.31609 V 73.436006 h -5.31609 v -4.114045 q 1.21898,0 2.33637,-0.135441 1.1174,-0.152372 1.86233,-0.507907 0.88037,-0.423256 1.32056,-1.100465 0.44018,-0.677209 0.5079,-1.693022 h 5.60391 v 20.874966 h 5.19758 z m 26.24184,0 h -19.79143 v -4.164835 q 2.26865,-1.642232 4.5373,-3.487627 2.28558,-1.845394 3.65693,-3.182882 2.04856,-1.980836 2.912,-3.453766 0.86344,-1.472929 0.86344,-2.911998 0,-1.726883 -1.1174,-2.658045 -1.10046,-0.948093 -3.18288,-0.948093 -1.55758,0 -3.28446,0.643349 -1.70995,0.643348 -3.18288,1.642231 h -0.54177 v -5.603904 q 1.20204,-0.524837 3.53842,-1.049674 2.3533,-0.524837 4.7066,-0.524837 4.74046,0 7.2292,1.997767 2.48875,1.980836 2.48875,5.620834 0,2.387162 -1.20205,4.5373 -1.18511,2.150139 -3.64,4.435719 -1.54065,1.422139 -3.09823,2.624185 -1.55758,1.185116 -2.21786,1.659162 h 11.32632 z"
         id="text1168"
         style="font-weight:bold;font-size:34.6731px;line-height:0.8;-inkscape-font-specification:'sans-serif Bold';white-space:pre;shape-padding:0.474158;opacity:0.970588;fill:#ffffff;stroke-width:7.55906;stroke-linejoin:round;paint-order:stroke fill markers"
         inkscape:transform-center-x="-33.147864"
         inkscape:transform-center-y="19.172955"
         transform="matrix(-0.15628191,0.27068822,-0.22486641,-0.12982668,155.45596,27.875631)"
         aria-label="12" /><path
         d="M 238.49615,91.161951 H 221.6675 v -4.401859 h 5.31609 V 73.436006 h -5.31609 v -4.114045 q 1.21898,0 2.33637,-0.135441 1.1174,-0.152372 1.86233,-0.507907 0.88037,-0.423256 1.32056,-1.100465 0.44018,-0.677209 0.5079,-1.693022 h 5.60391 v 20.874966 h 5.19758 z m 25.70008,-8.532833 q 0,1.963906 -0.74493,3.656928 -0.728,1.676092 -2.13321,2.878138 -1.55758,1.286697 -3.58921,1.913116 -2.0147,0.609488 -4.60502,0.609488 -3.03051,-0.01693 -5.12986,-0.490977 -2.08242,-0.457116 -3.40297,-1.032743 v -5.570044 h 0.71106 q 1.54066,0.914232 3.31833,1.52372 1.77767,0.609488 3.53842,0.609488 1.0666,0 2.30251,-0.237023 1.25283,-0.253953 1.98083,-0.897302 0.57563,-0.524837 0.86344,-1.066604 0.30475,-0.541767 0.30475,-1.676092 0,-0.880372 -0.40633,-1.50679 -0.38939,-0.643349 -1.01581,-1.032744 -0.91423,-0.558697 -2.20093,-0.728 -1.2867,-0.186232 -2.33637,-0.186232 -1.52372,0 -2.92893,0.270883 -1.38828,0.253954 -2.43795,0.507907 h -0.74493 V 65.952847 h 17.92911 v 4.825114 h -11.8173 v 4.114044 q 0.52484,-0.03386 1.32056,-0.05079 0.81265,-0.03386 1.42214,-0.03386 2.08241,0 3.70771,0.406325 1.64224,0.389396 2.82735,1.100465 1.54065,0.931162 2.40409,2.471813 0.86345,1.52372 0.86345,3.843161 z"
         id="text1172"
         style="font-weight:bold;font-size:34.6731px;line-height:0.8;-inkscape-font-specification:'sans-serif Bold';white-space:pre;shape-padding:0.474158;opacity:0.970588;fill:#ffffff;stroke-width:7.55906;stroke-linejoin:round;paint-order:stroke fill markers"
         inkscape:transform-center-x="-19.137994"
         inkscape:transform-center-y="33.208649"
         transform="matrix(-0.27068822,0.15628192,-0.12982668,-0.22486641,160.9476,78.6261)"
         aria-label="15" /><path
         d="m 240.08759,91.161951 h -19.79144 v -4.164835 q 2.26865,-1.642232 4.5373,-3.487627 2.28558,-1.845394 3.65693,-3.182882 2.04856,-1.980836 2.912,-3.453766 0.86344,-1.472929 0.86344,-2.911998 0,-1.726883 -1.11739,-2.658045 -1.10047,-0.948093 -3.18288,-0.948093 -1.55758,0 -3.28447,0.643349 -1.70995,0.643348 -3.18288,1.642231 h -0.54177 v -5.603904 q 1.20205,-0.524837 3.53842,-1.049674 2.3533,-0.524837 4.7066,-0.524837 4.74046,0 7.22921,1.997767 2.48874,1.980836 2.48874,5.620834 0,2.387162 -1.20205,4.5373 -1.18511,2.150139 -3.63999,4.435719 -1.54065,1.422139 -3.09823,2.624185 -1.55759,1.185116 -2.21786,1.659162 h 11.32632 z m 23.05896,0 H 246.31791 V 86.760092 H 251.634 V 73.436006 h -5.31609 v -4.114045 q 1.21897,0 2.33637,-0.135441 1.11739,-0.152372 1.86232,-0.507907 0.88038,-0.423256 1.32056,-1.100465 0.44019,-0.677209 0.50791,-1.693022 h 5.6039 v 20.874966 h 5.19758 z"
         id="text1176"
         style="font-weight:bold;font-size:34.6731px;line-height:0.8;-inkscape-font-specification:'sans-serif Bold';white-space:pre;shape-padding:0.474158;opacity:0.970588;fill:#ffffff;stroke-width:7.55906;stroke-linejoin:round;paint-order:stroke fill markers"
         inkscape:transform-center-x="19.172955"
         inkscape:transform-center-y="33.147862"
         transform="matrix(-0.27068822,-0.15628192,0.12982668,-0.22486641,99.122891,155.45425)"
         aria-label="21" /><path
         d="m 240.08759,91.161951 h -19.79144 v -4.164835 q 2.26865,-1.642232 4.5373,-3.487627 2.28558,-1.845394 3.65693,-3.182882 2.04856,-1.980836 2.912,-3.453766 0.86344,-1.472929 0.86344,-2.911998 0,-1.726883 -1.11739,-2.658045 -1.10047,-0.948093 -3.18288,-0.948093 -1.55758,0 -3.28447,0.643349 -1.70995,0.643348 -3.18288,1.642231 h -0.54177 v -5.603904 q 1.20205,-0.524837 3.53842,-1.049674 2.3533,-0.524837 4.7066,-0.524837 4.74046,0 7.22921,1.997767 2.48874,1.980836 2.48874,5.620834 0,2.387162 -1.20205,4.5373 -1.18511,2.150139 -3.63999,4.435719 -1.54065,1.422139 -3.09823,2.624185 -1.55759,1.185116 -2.21786,1.659162 h 11.32632 z m 25.00594,-5.807067 h -3.43684 v 5.874788 h -6.21339 v -5.874788 h -12.20669 v -4.774323 l 11.80036,-14.627714 h 6.61972 v 14.797016 h 3.43684 z m -9.65023,-4.605021 v -9.108461 l -7.33079,9.108461 z"
         id="text1180"
         style="font-weight:bold;font-size:34.6731px;line-height:0.8;-inkscape-font-specification:'sans-serif Bold';white-space:pre;shape-padding:0.474158;opacity:0.970588;fill:#ffffff;stroke-width:7.55906;stroke-linejoin:round;paint-order:stroke fill markers"
         inkscape:transform-center-x="33.208646"
         inkscape:transform-center-y="19.137994"
         transform="matrix(-0.15628191,-0.27068822,0.22486641,-0.12982668,48.372423,160.94589)"
         aria-label="24" /><path
         d="m 237.61577,79.344654 q 0.82958,0.71107 1.32056,1.659162 0.49098,0.948093 0.49098,2.522604 0,1.777673 -0.71107,3.318324 -0.69414,1.54065 -2.15014,2.641115 -1.42214,1.066604 -3.35218,1.642231 -1.91312,0.558698 -4.65582,0.558698 -3.13209,0 -5.38381,-0.490977 -2.23479,-0.490976 -3.64,-1.100464 v -5.536184 h 0.66028 q 1.456,0.880372 3.4707,1.52372 2.03163,0.643349 3.70772,0.643349 0.98195,0 2.13321,-0.152372 1.15125,-0.169302 1.94697,-0.711069 0.62642,-0.423256 0.99889,-1.015814 0.37246,-0.609488 0.37246,-1.743813 0,-1.100465 -0.50791,-1.693022 -0.5079,-0.609489 -1.33748,-0.863442 -0.82959,-0.270883 -1.99777,-0.287814 -1.16819,-0.03386 -2.16707,-0.03386 h -1.38828 v -4.50344 h 1.43907 q 1.32056,0 2.33637,-0.08465 1.01582,-0.08465 1.72688,-0.389395 0.74493,-0.321674 1.1174,-0.846511 0.37246,-0.541768 0.37246,-1.574511 0,-0.76186 -0.38939,-1.218976 -0.3894,-0.474047 -0.98195,-0.74493 -0.66028,-0.304744 -1.55758,-0.406326 -0.89731,-0.101581 -1.54065,-0.101581 -1.59145,0 -3.45377,0.558697 -1.86233,0.541768 -3.60614,1.574511 h -0.62642 v -5.468462 q 1.38828,-0.558698 3.77544,-1.066604 2.38717,-0.524837 4.84205,-0.524837 2.38716,0 4.18176,0.423255 1.79461,0.406326 2.96279,1.100465 1.38828,0.829581 2.06549,2.014697 0.67721,1.185115 0.67721,2.776556 0,2.099348 -1.30363,3.75851 -1.30363,1.642232 -3.43683,2.099348 v 0.237023 q 0.86344,0.118512 1.82846,0.474047 0.96502,0.355534 1.76074,1.032743 z m 26.95292,-0.79572 q 0,3.182882 -0.57563,5.705485 -0.57563,2.505673 -1.7946,4.114045 -1.25284,1.642232 -3.21674,2.488743 -1.96391,0.829581 -4.84205,0.829581 -2.82735,0 -4.82511,-0.846511 -1.99777,-0.846512 -3.23368,-2.505674 -1.25283,-1.659162 -1.81153,-4.114044 -0.5587,-2.471813 -0.5587,-5.654695 0,-3.284464 0.57563,-5.705486 0.57563,-2.421022 1.82847,-4.097114 1.25283,-1.659162 3.2506,-2.488743 1.99776,-0.829581 4.77432,-0.829581 2.89507,0 4.85898,0.863441 1.9639,0.846512 3.21674,2.539534 1.23591,1.659162 1.7946,4.097114 0.5587,2.421022 0.5587,5.603905 z m -6.552,0 q 0,-4.571161 -0.8973,-6.501207 -0.8973,-1.946975 -2.97972,-1.946975 -2.08242,0 -2.97972,1.946975 -0.8973,1.930046 -0.8973,6.535067 0,4.48651 0.91423,6.467346 0.91423,1.980836 2.96279,1.980836 2.04856,0 2.96279,-1.980836 0.91423,-1.980836 0.91423,-6.501206 z"
         id="text1184"
         style="font-weight:bold;font-size:34.6731px;line-height:0.8;-inkscape-font-specification:'sans-serif Bold';white-space:pre;shape-padding:0.474158;opacity:0.970588;fill:#ffffff;stroke-width:7.55906;stroke-linejoin:round;paint-order:stroke fill markers"
         inkscape:transform-center-x="33.14786"
         inkscape:transform-center-y="-19.172955"
         transform="matrix(0.15628192,-0.27068822,0.22486641,0.12982668,-28.455726,99.121181)"
         aria-label="30" /><path
         d="m 237.61577,79.344654 q 0.82958,0.71107 1.32056,1.659162 0.49098,0.948093 0.49098,2.522604 0,1.777673 -0.71107,3.318324 -0.69414,1.54065 -2.15014,2.641115 -1.42214,1.066604 -3.35218,1.642231 -1.91312,0.558698 -4.65582,0.558698 -3.13209,0 -5.38381,-0.490977 -2.23479,-0.490976 -3.64,-1.100464 v -5.536184 h 0.66028 q 1.456,0.880372 3.4707,1.52372 2.03163,0.643349 3.70772,0.643349 0.98195,0 2.13321,-0.152372 1.15125,-0.169302 1.94697,-0.711069 0.62642,-0.423256 0.99889,-1.015814 0.37246,-0.609488 0.37246,-1.743813 0,-1.100465 -0.50791,-1.693022 -0.5079,-0.609489 -1.33748,-0.863442 -0.82959,-0.270883 -1.99777,-0.287814 -1.16819,-0.03386 -2.16707,-0.03386 h -1.38828 v -4.50344 h 1.43907 q 1.32056,0 2.33637,-0.08465 1.01582,-0.08465 1.72688,-0.389395 0.74493,-0.321674 1.1174,-0.846511 0.37246,-0.541768 0.37246,-1.574511 0,-0.76186 -0.38939,-1.218976 -0.3894,-0.474047 -0.98195,-0.74493 -0.66028,-0.304744 -1.55758,-0.406326 -0.89731,-0.101581 -1.54065,-0.101581 -1.59145,0 -3.45377,0.558697 -1.86233,0.541768 -3.60614,1.574511 h -0.62642 v -5.468462 q 1.38828,-0.558698 3.77544,-1.066604 2.38717,-0.524837 4.84205,-0.524837 2.38716,0 4.18176,0.423255 1.79461,0.406326 2.96279,1.100465 1.38828,0.829581 2.06549,2.014697 0.67721,1.185115 0.67721,2.776556 0,2.099348 -1.30363,3.75851 -1.30363,1.642232 -3.43683,2.099348 v 0.237023 q 0.86344,0.118512 1.82846,0.474047 0.96502,0.355534 1.76074,1.032743 z m 24.65041,0 q 0.82958,0.71107 1.32056,1.659162 0.49097,0.948093 0.49097,2.522604 0,1.777673 -0.71107,3.318324 -0.69414,1.54065 -2.15013,2.641115 -1.42214,1.066604 -3.35219,1.642231 -1.91311,0.558698 -4.65581,0.558698 -3.13209,0 -5.38381,-0.490977 -2.23479,-0.490976 -3.64,-1.100464 v -5.536184 h 0.66028 q 1.456,0.880372 3.47069,1.52372 2.03163,0.643349 3.70772,0.643349 0.98196,0 2.13321,-0.152372 1.15126,-0.169302 1.94698,-0.711069 0.62642,-0.423256 0.99888,-1.015814 0.37247,-0.609488 0.37247,-1.743813 0,-1.100465 -0.50791,-1.693022 -0.50791,-0.609489 -1.33749,-0.863442 -0.82958,-0.270883 -1.99777,-0.287814 -1.16818,-0.03386 -2.16706,-0.03386 h -1.38828 v -4.50344 h 1.43907 q 1.32055,0 2.33637,-0.08465 1.01581,-0.08465 1.72688,-0.389395 0.74493,-0.321674 1.1174,-0.846511 0.37246,-0.541768 0.37246,-1.574511 0,-0.76186 -0.38939,-1.218976 -0.3894,-0.474047 -0.98196,-0.74493 -0.66028,-0.304744 -1.55758,-0.406326 -0.8973,-0.101581 -1.54065,-0.101581 -1.59144,0 -3.45376,0.558697 -1.86233,0.541768 -3.60614,1.574511 h -0.62642 v -5.468462 q 1.38828,-0.558698 3.77544,-1.066604 2.38716,-0.524837 4.84204,-0.524837 2.38717,0 4.18177,0.423255 1.7946,0.406326 2.96279,1.100465 1.38828,0.829581 2.06549,2.014697 0.6772,1.185115 0.6772,2.776556 0,2.099348 -1.30362,3.75851 -1.30363,1.642232 -3.43684,2.099348 v 0.237023 q 0.86344,0.118512 1.82847,0.474047 0.96502,0.355534 1.76074,1.032743 z"
         id="text1188"
         style="font-weight:bold;font-size:34.6731px;line-height:0.8;-inkscape-font-specification:'sans-serif Bold';white-space:pre;shape-padding:0.474158;opacity:0.970588;fill:#ffffff;stroke-width:7.55906;stroke-linejoin:round;paint-order:stroke fill markers"
         inkscape:transform-center-x="19.137993"
         inkscape:transform-center-y="-33.208646"
         transform="matrix(0.27068822,-0.15628191,0.12982668,0.22486641,-33.947367,48.370713)"
         aria-label="33&#10;" /><path
         d="m 243.30433,91.161951 h -6.26418 l -10.69991,-17.30269 v 17.30269 h -5.95943 V 65.952847 h 7.77097 l 9.19311,14.441481 V 65.952847 h 5.95944 z"
         id="text1192"
         style="font-weight:bold;font-size:34.6731px;line-height:0.8;-inkscape-font-specification:'sans-serif Bold';white-space:pre;shape-padding:0.474158;opacity:0.970588;fill:#ffffff;stroke-width:7.55906;stroke-linejoin:round;paint-order:stroke fill markers"
         inkscape:transform-center-x="0.00011563965"
         inkscape:transform-center-y="-38.34611"
         transform="matrix(0.31256383,0,0,0.25965336,-9.3786561,1.6736979)"
         aria-label="N" /><path
         d="m 237.61577,79.344654 q 0.82958,0.71107 1.32056,1.659162 0.49098,0.948093 0.49098,2.522604 0,1.777673 -0.71107,3.318324 -0.69414,1.54065 -2.15014,2.641115 -1.42214,1.066604 -3.35218,1.642231 -1.91312,0.558698 -4.65582,0.558698 -3.13209,0 -5.38381,-0.490977 -2.23479,-0.490976 -3.64,-1.100464 v -5.536184 h 0.66028 q 1.456,0.880372 3.4707,1.52372 2.03163,0.643349 3.70772,0.643349 0.98195,0 2.13321,-0.152372 1.15125,-0.169302 1.94697,-0.711069 0.62642,-0.423256 0.99889,-1.015814 0.37246,-0.609488 0.37246,-1.743813 0,-1.100465 -0.50791,-1.693022 -0.5079,-0.609489 -1.33748,-0.863442 -0.82959,-0.270883 -1.99777,-0.287814 -1.16819,-0.03386 -2.16707,-0.03386 h -1.38828 v -4.50344 h 1.43907 q 1.32056,0 2.33637,-0.08465 1.01582,-0.08465 1.72688,-0.389395 0.74493,-0.321674 1.1174,-0.846511 0.37246,-0.541768 0.37246,-1.574511 0,-0.76186 -0.38939,-1.218976 -0.3894,-0.474047 -0.98195,-0.74493 -0.66028,-0.304744 -1.55758,-0.406326 -0.89731,-0.101581 -1.54065,-0.101581 -1.59145,0 -3.45377,0.558697 -1.86233,0.541768 -3.60614,1.574511 h -0.62642 v -5.468462 q 1.38828,-0.558698 3.77544,-1.066604 2.38717,-0.524837 4.84205,-0.524837 2.38716,0 4.18176,0.423255 1.79461,0.406326 2.96279,1.100465 1.38828,0.829581 2.06549,2.014697 0.67721,1.185115 0.67721,2.776556 0,2.099348 -1.30363,3.75851 -1.30363,1.642232 -3.43683,2.099348 v 0.237023 q 0.86344,0.118512 1.82846,0.474047 0.96502,0.355534 1.76074,1.032743 z"
         id="text1196"
         style="font-weight:bold;font-size:34.6731px;line-height:0.8;-inkscape-font-specification:'sans-serif Bold';white-space:pre;shape-padding:0.474158;opacity:0.970588;fill:#ffffff;stroke-width:7.55906;stroke-linejoin:round;paint-order:stroke fill markers"
         inkscape:transform-center-x="-19.172955"
         inkscape:transform-center-y="-33.208764"
         transform="matrix(0.27068822,0.15628191,-0.12982668,0.22486641,31.339525,-26.471514)"
         aria-label="3" /><path
         d="m 240.05373,82.578327 q 0,1.946976 -0.71107,3.656929 -0.71107,1.709952 -1.99777,2.878138 -1.37135,1.252836 -3.18288,1.913115 -1.79461,0.660279 -4.21563,0.660279 -2.26865,0 -4.1479,-0.609488 -1.86233,-0.626419 -3.19982,-1.896185 -1.54065,-1.456 -2.3533,-3.75851 -0.81265,-2.302511 -0.81265,-5.502323 0,-3.318324 0.76186,-5.891718 0.76186,-2.573394 2.48875,-4.554231 1.65916,-1.896185 4.30027,-2.945859 2.65805,-1.049674 6.31498,-1.049674 1.2359,0 2.70883,0.169303 1.47293,0.169302 1.91312,0.253953 v 4.960556 h -0.64335 q -0.45712,-0.220093 -1.55758,-0.490977 -1.08354,-0.287814 -2.47181,-0.287814 -3.25061,0 -5.06214,1.591442 -1.81154,1.591441 -2.184,4.435718 1.30363,-0.77879 2.7427,-1.252836 1.456,-0.490977 3.13209,-0.490977 1.47293,0 2.72576,0.338605 1.26977,0.338604 2.3533,1.083534 1.40521,0.981953 2.25172,2.641115 0.84652,1.659162 0.84652,4.147905 z m -7.70326,3.809301 q 0.52484,-0.575628 0.82958,-1.354418 0.32168,-0.795721 0.32168,-2.150139 0,-1.235906 -0.35554,-2.014697 -0.35553,-0.79572 -0.98195,-1.269766 -0.60949,-0.474047 -1.43907,-0.643349 -0.82958,-0.186232 -1.70995,-0.186232 -0.74493,0 -1.55758,0.169302 -0.81265,0.169302 -1.48986,0.423255 0,0.169303 -0.0169,0.558698 -0.0169,0.389395 -0.0169,0.981953 0,2.082417 0.40632,3.436835 0.42326,1.337488 1.1174,2.048558 0.47405,0.524836 1.11739,0.77879 0.64335,0.237023 1.38828,0.237023 0.5587,0 1.23591,-0.253953 0.67721,-0.253954 1.15125,-0.76186 z"
         id="text1200"
         style="font-weight:bold;font-size:34.6731px;line-height:0.8;-inkscape-font-specification:'sans-serif Bold';white-space:pre;shape-padding:0.474158;opacity:0.970588;fill:#ffffff;stroke-width:7.55906;stroke-linejoin:round;paint-order:stroke fill markers"
         inkscape:transform-center-x="-33.208648"
         inkscape:transform-center-y="-19.173154"
         transform="matrix(0.15628192,0.27068822,-0.22486641,0.12982668,80.675111,-30.486892)"
         aria-label="6" /><path
         d="M 238.61466,91.161951 H 220.38081 V 65.952847 h 18.23385 v 4.875904 h -11.76651 v 4.351068 h 10.92 v 4.875905 h -10.92 v 6.230322 h 11.76651 z"
         id="text1204"
         style="font-weight:bold;font-size:34.6731px;line-height:0.8;-inkscape-font-specification:'sans-serif Bold';white-space:pre;shape-padding:0.474158;opacity:0.970588;fill:#ffffff;stroke-width:7.55906;stroke-linejoin:round;paint-order:stroke fill markers"
         inkscape:transform-center-x="-38.34611"
         inkscape:transform-center-y="-0.0001155949"
         transform="matrix(0,0.31256383,-0.25965336,0,125.40867,-8.8739954)"
         aria-label="E" /><path
         d="m 240.56163,83.238606 q 0,3.724649 -3.16595,6.06102 -3.14902,2.319441 -8.56669,2.319441 -3.13209,0 -5.46847,-0.541767 -2.31944,-0.558698 -4.35106,-1.405209 v -6.04409 h 0.71107 q 2.01469,1.608371 4.50344,2.471813 2.50567,0.863441 4.80818,0.863441 0.59256,0 1.55758,-0.101581 0.96502,-0.101582 1.57451,-0.338605 0.74493,-0.304744 1.21898,-0.76186 0.49097,-0.457116 0.49097,-1.354418 0,-0.829581 -0.71107,-1.422139 -0.69413,-0.609488 -2.04855,-0.931162 -1.42214,-0.338604 -3.01358,-0.626418 -1.57451,-0.304744 -2.96279,-0.76186 -3.18288,-1.032744 -4.58809,-2.793487 -1.38828,-1.777674 -1.38828,-4.401859 0,-3.521486 3.14902,-5.739346 3.16595,-2.234789 8.12651,-2.234789 2.48874,0 4.90976,0.490976 2.43796,0.474046 4.21563,1.202046 v 5.807067 h -0.69414 q -1.52372,-1.218976 -3.74158,-2.031627 -2.20093,-0.829581 -4.50344,-0.829581 -0.81265,0 -1.6253,0.118512 -0.79572,0.101581 -1.54065,0.406325 -0.66028,0.253953 -1.13433,0.77879 -0.47404,0.507907 -0.47404,1.168186 0,0.998883 0.76186,1.54065 0.76186,0.524837 2.87814,0.965023 1.38827,0.287814 2.65804,0.558698 1.2867,0.270883 2.75963,0.744929 2.89507,0.948093 4.26641,2.590325 1.38828,1.625301 1.38828,4.232556 z"
         id="text1208"
         style="font-weight:bold;font-size:34.6731px;line-height:0.8;-inkscape-font-specification:'sans-serif Bold';white-space:pre;shape-padding:0.474158;opacity:0.970588;fill:#ffffff;stroke-width:7.55906;stroke-linejoin:round;paint-order:stroke fill markers"
         inkscape:transform-center-x="-0.00011822153"
         inkscape:transform-center-y="38.346113"
         transform="matrix(-0.31256383,0,0,-0.25965336,136.37889,125.49081)"
         aria-label="S" /><path
         d="m 255.17242,65.952847 -6.78902,25.209104 h -7.19535 l -4.52037,-16.422318 -4.40186,16.422318 h -7.19534 l -6.78902,-25.209104 h 6.78902 l 3.87702,17.35348 4.63888,-17.35348 h 6.48428 l 4.41878,17.35348 4.06326,-17.35348 z"
         id="text1212"
         style="font-weight:bold;font-size:34.6731px;line-height:0.8;-inkscape-font-specification:'sans-serif Bold';white-space:pre;shape-padding:0.474158;opacity:0.970588;fill:#ffffff;stroke-width:7.55906;stroke-linejoin:round;paint-order:stroke fill markers"
         inkscape:transform-center-x="38.34611"
         inkscape:transform-center-y="0.00011126628"
         transform="matrix(0,-0.31256383,0.25965336,0,1.5915609,137.97078)"
         aria-label="W" /></g></g><g
     inkscape:groupmode="layer"
     id="layer2"
     inkscape:label="Layer 2"
     style="display:none"><path
       id="path4420"
       transform="matrix(0.41578673,0,0,0.3555402,37.097542,55.013701)"
       inkscape:transform-center-x="-0.032593681"
       inkscape:transform-center-y="-1.2996514"
       d="M 63.499998,0.22498131 90.801468,47.512507 63.089972,23.868744 36.198534,47.512511 Z"
       style="opacity:0.970588;fill:#000000;fill-opacity:0;stroke:#ff0000;stroke-width:6.76229;stroke-linecap:butt;stroke-linejoin:round;stroke-dasharray:none;stroke-dashoffset:0;stroke-opacity:1;paint-order:normal"
       sodipodi:nodetypes="ccccc" /></g></svg>
