<?xml version="1.0" encoding="UTF-8" standalone="no"?>
<!-- Created with Inkscape (http://www.inkscape.org/) -->

<svg
   width="480"
   height="480"
   viewBox="0 0 127 127"
   version="1.1"
   id="svg5"
   xml:space="preserve"
   inkscape:version="1.2.1 (9c6d41e410, 2022-07-14)"
   sodipodi:docname="Pokeball.svg"
   xmlns:inkscape="http://www.inkscape.org/namespaces/inkscape"
   xmlns:sodipodi="http://sodipodi.sourceforge.net/DTD/sodipodi-0.dtd"
   xmlns="http://www.w3.org/2000/svg"
   xmlns:svg="http://www.w3.org/2000/svg"><sodipodi:namedview
     id="namedview7"
     pagecolor="#ffffff"
     bordercolor="#000000"
     borderopacity="0.25"
     inkscape:showpageshadow="2"
     inkscape:pageopacity="0.0"
     inkscape:pagecheckerboard="0"
     inkscape:deskcolor="#d1d1d1"
     inkscape:document-units="mm"
     showgrid="false"
     inkscape:zoom="1.4912879"
     inkscape:cx="251.4605"
     inkscape:cy="268.22454"
     inkscape:window-width="1920"
     inkscape:window-height="1017"
     inkscape:window-x="-8"
     inkscape:window-y="-8"
     inkscape:window-maximized="1"
     inkscape:current-layer="svg5" /><defs
     id="defs2"><linearGradient
       id="linearGradient3335"
       inkscape:swatch="solid"><stop
         style="stop-color:#4f6bd0;stop-opacity:1;"
         offset="0"
         id="stop3333" /></linearGradient><inkscape:path-effect
       effect="bspline"
       id="path-effect1151"
       is_visible="true"
       lpeversion="1"
       weight="33.333333"
       steps="2"
       helper_size="0"
       apply_no_weight="true"
       apply_with_weight="true"
       only_selected="false" /><inkscape:path-effect
       effect="bspline"
       id="path-effect1147"
       is_visible="true"
       lpeversion="1"
       weight="33.333333"
       steps="2"
       helper_size="0"
       apply_no_weight="true"
       apply_with_weight="true"
       only_selected="false" /><inkscape:path-effect
       effect="bspline"
       id="path-effect1151-8"
       is_visible="true"
       lpeversion="1"
       weight="33.333333"
       steps="2"
       helper_size="0"
       apply_no_weight="true"
       apply_with_weight="true"
       only_selected="false" /></defs><g
     inkscape:groupmode="layer"
     id="layer3"
     inkscape:label="Layer 2"
     style="display:inline"><path
       style="opacity:0.970588;fill:#ff2626;fill-opacity:1;stroke:none;stroke-width:6.00001;stroke-linejoin:round;stroke-dasharray:none;stroke-opacity:1;paint-order:stroke fill markers"
       d="m 10.329268,63.375553 c 6.356432,0.355293 18.776422,0.229839 25.028097,-0.627322 6.251674,-0.857162 6.335309,-2.446221 7.171668,-4.934501 0.836358,-2.488281 2.425416,-5.875482 4.516405,-8.447392 2.090989,-2.57191 4.683662,-4.328238 7.255568,-5.520064 2.571906,-1.191827 5.122762,-1.819086 8.196485,-1.881765 3.073724,-0.06268 6.670012,0.43913 9.346388,1.401058 2.676375,0.961928 4.432701,2.383716 6.126314,4.244679 1.693613,1.860963 3.32449,4.160916 4.558067,6.920951 1.233578,2.760035 2.069924,5.979968 3.199123,7.610723 1.129199,1.630755 2.550988,1.672573 8.740176,1.630748 6.189191,-0.04182 17.145331,-0.167276 22.665181,-0.689891 5.51985,-0.522614 5.60349,-1.442597 5.41532,-4.892632 -0.18816,-3.450034 -0.64815,-9.429908 -2.59265,-15.284492 C 118.01092,37.051069 114.5819,31.322104 110.54645,26.387489 106.51099,21.452873 101.86927,17.31296 96.349235,13.988331 90.829197,10.663701 84.431149,8.1546628 79.601111,6.6282576 74.771073,5.1018523 71.509324,4.5582275 67.411075,4.3491098 63.312826,4.1399921 58.378384,4.2654441 52.293719,5.6036267 46.209054,6.9418093 38.974661,9.4926645 33.099108,12.545437 27.223555,15.59821 22.707286,19.152682 19.110858,23.167321 15.514431,27.18196 12.838123,31.656413 10.349917,37.343789 7.8617118,43.031166 5.5617604,49.93102 4.432701,54.133815 3.3036416,58.33661 3.345459,59.842033 3.5127865,61.012973 c 0.1673275,1.17094 0.4600488,2.007286 6.8164815,2.36258 z"
       id="path1149"
       inkscape:path-effect="#path-effect1151"
       inkscape:original-d="m 4.2654505,63.856303 c 12.4202525,-0.12519 24.8402425,-0.250642 37.2599635,-0.376362 0.08391,-1.588857 0.16754,-3.177916 0.25091,-4.76727 1.589386,-3.387072 3.178445,-6.774273 4.767268,-10.161807 2.593041,-1.756132 5.185714,-3.51246 7.778176,-5.269087 2.55122,-0.62702 5.102076,-1.254279 7.65272,-1.881815 3.596696,0.502092 7.192984,1.003898 10.789079,1.505453 1.756664,1.422109 3.512989,2.843898 5.269087,4.265451 1.631204,2.300306 3.26208,4.60026 4.892723,6.899992 0.836644,3.220326 1.672989,6.44026 2.509088,9.65999 1.422109,0.04209 2.843898,0.0839 4.265451,0.125455 10.956834,-0.125193 21.912974,-0.250642 32.869064,-0.376362 0.0839,-0.919752 0.16753,-1.839735 0.2509,-2.759998 -0.45974,-5.979851 -0.91973,-11.959725 -1.37999,-17.939983 -3.4289,-5.728935 -6.85791,-11.457905 -10.28727,-17.187257 C 106.51098,21.452889 101.86926,17.312976 97.227182,13.172715 90.829142,10.663841 84.431094,8.1548025 78.032654,5.6454492 74.771037,5.102067 71.509288,4.5584422 68.247209,4.0145417 63.312833,4.1402632 58.378391,4.2657151 53.443586,4.3909051 46.209166,6.9421274 38.974773,9.4929829 31.739969,12.043625 c -4.516183,3.554878 -9.032453,7.109349 -13.549077,10.663626 -2.67615,4.474895 -5.352458,8.949348 -8.029083,13.423624 -2.2997796,6.900397 -4.5997314,13.800251 -6.899994,20.699981 0.042084,1.505747 0.083901,3.01117 0.1254546,4.516358 0.2929975,0.836645 0.5857184,1.672992 0.8781809,2.509089 z" /><path
       style="opacity:0.970588;fill:#ffffff;fill-opacity:1;stroke:none;stroke-width:6.00001;stroke-linejoin:round;stroke-dasharray:none;stroke-opacity:1;paint-order:stroke fill markers"
       d="m 116.31341,63.408105 c -6.35611,-0.361063 -18.776207,-0.246883 -25.028656,0.604603 -6.25245,0.851486 -6.337528,2.440468 -7.176144,4.927988 -0.838617,2.48752 -2.430749,5.873277 -4.524072,8.443289 -2.093323,2.570011 -4.687589,4.323984 -7.260576,5.513476 -2.572987,1.189491 -5.124411,1.814434 -8.19819,1.874322 -3.073779,0.05989 -6.66961,-0.445184 -9.345112,-1.409541 -2.675501,-0.964357 -4.430535,-2.387738 -6.122459,-4.250238 -1.691923,-1.8625 -3.320711,-4.163932 -4.551783,-6.925086 -1.231071,-2.761153 -2.064494,-5.981844 -3.192212,-7.613624 -1.127718,-1.631779 -2.549469,-1.674887 -8.738691,-1.638681 -6.189223,0.03621 -17.145473,0.151712 -22.6657982,0.669316 -5.520325,0.517604 -5.6047918,1.43751 -5.4197591,4.887714 0.1850328,3.450204 0.6395918,9.430494 2.5787723,15.28684 1.9391806,5.856347 5.362996,11.588423 9.393966,16.526697 4.030971,4.93828 8.668929,9.0824 14.185949,12.41204 5.517021,3.32964 11.912787,5.84448 16.741438,7.37527 4.828651,1.53079 8.089905,2.07737 12.187962,2.29021 4.098058,0.21284 9.032611,0.0919 15.118489,-1.24079 6.085878,-1.33266 13.322581,-3.87695 19.200902,-6.92438 5.878322,-3.04744 10.397814,-6.59781 13.997884,-10.60918 3.60007,-4.011375 6.28044,-8.483398 8.77381,-14.168513 2.49336,-5.685115 4.79958,-12.582877 5.93245,-16.784645 1.13288,-4.201768 1.09243,-5.70723 0.92616,-6.878321 -0.16626,-1.171091 -0.45823,-2.007703 -6.81433,-2.368766 z"
       id="path1149-9"
       inkscape:path-effect="#path-effect1151-8"
       inkscape:original-d="m 122.37766,62.93286 c -12.42036,0.113915 -24.840459,0.228093 -37.260289,0.342539 -0.08535,1.58878 -0.170424,3.177762 -0.255237,4.76704 -1.59246,3.385627 -3.184593,6.771384 -4.776491,10.157475 -2.594634,1.753777 -5.1889,3.507751 -7.782955,5.262024 -2.551789,0.624704 -5.103213,1.249647 -7.654425,1.874867 -3.596239,-0.505356 -7.19207,-1.010427 -10.787708,-1.515246 -1.755373,-1.423703 -3.510406,-2.847085 -5.265213,-4.270232 -1.629116,-2.301786 -3.257903,-4.603219 -4.886458,-6.90443 -0.83372,-3.221085 -1.667142,-6.441776 -2.500318,-9.662264 -1.42207,-0.04338 -2.843821,-0.08648 -4.265335,-0.129327 -10.956942,0.115247 -21.913192,0.230751 -32.869391,0.346525 -0.084735,0.919676 -0.1691999,1.839582 -0.2534053,2.759769 0.4543116,5.980266 0.9088732,11.960555 1.3637044,17.941228 3.4236983,5.732046 6.8475059,11.464126 10.2716639,17.196592 4.63788,4.14402 9.27584,8.28814 13.914157,12.43262 6.39576,2.51468 12.791527,5.02952 19.187687,7.54468 3.261122,0.54635 6.522377,1.09293 9.78396,1.63979 4.934489,-0.12124 9.869042,-0.24221 14.803959,-0.36292 7.236733,-2.54466 14.473438,-5.08894 21.710555,-7.63302 4.519411,-3.55077 9.038899,-7.10114 13.558749,-10.65132 2.68021,-4.472461 5.36058,-8.944482 8.04126,-13.416327 2.30605,-6.898306 4.61226,-13.79607 6.91879,-20.693709 -0.0407,-1.505784 -0.0812,-3.011244 -0.12136,-4.516469 -0.29224,-0.836911 -0.5842,-1.673523 -0.8759,-2.509885 z" /></g><g
     inkscape:label="Layer 1"
     inkscape:groupmode="layer"
     id="layer1"
     style="display:inline"><circle
       style="opacity:0.970588;fill:none;stroke:#383838;stroke-width:5.99988;stroke-linejoin:round;stroke-dasharray:none;stroke-opacity:1;paint-order:stroke fill markers"
       id="path355"
       cx="63.5"
       cy="63.5"
       r="60.500061" /><ellipse
       style="opacity:1;mix-blend-mode:normal;fill:#ffffff;fill-opacity:1;fill-rule:evenodd;stroke:#383838;stroke-width:13.319;stroke-linejoin:round;stroke-dasharray:none;stroke-opacity:1;paint-order:stroke fill markers"
       id="path963"
       cx="63.46962"
       cy="63.469624"
       rx="19.798944"
       ry="19.79895" /><path
       style="opacity:0.970588;fill:none;stroke:#383838;stroke-width:6.00001;stroke-linejoin:round;stroke-dasharray:none;stroke-opacity:1;paint-order:stroke fill markers"
       d="m 3.0105597,64.059634 38.8915653,0.09516 v 0"
       id="path1136" /><path
       style="opacity:0.970588;fill:none;stroke:#383838;stroke-width:6.00001;stroke-linejoin:round;stroke-dasharray:none;stroke-opacity:1;paint-order:stroke fill markers"
       d="m 85.556412,63.271081 38.396068,0.166808 v 0"
       id="path1138" /></g></svg>
